<?xml version="1.0" encoding="UTF-8" standalone="no"?>
<svg
   xmlns:dc="http://purl.org/dc/elements/1.1/"
   xmlns:cc="http://creativecommons.org/ns#"
   xmlns:rdf="http://www.w3.org/1999/02/22-rdf-syntax-ns#"
   xmlns:svg="http://www.w3.org/2000/svg"
   xmlns="http://www.w3.org/2000/svg"
   xmlns:sodipodi="http://sodipodi.sourceforge.net/DTD/sodipodi-0.dtd"
   xmlns:inkscape="http://www.inkscape.org/namespaces/inkscape"
   version="1.1"
   id="svg2180"
   width="1200"
   height="1200"
   viewBox="0 0 1200 1200"
   sodipodi:docname="Pantry2.svg"
   inkscape:version="1.0.2-2 (e86c870879, 2021-01-15)">
  <metadata
     id="metadata2186">
    <rdf:RDF>
      <cc:Work
         rdf:about="">
        <dc:format>image/svg+xml</dc:format>
        <dc:type
           rdf:resource="http://purl.org/dc/dcmitype/StillImage" />
        <dc:title></dc:title>
      </cc:Work>
    </rdf:RDF>
  </metadata>
  <defs
     id="defs2184" />
  <sodipodi:namedview
     pagecolor="#ffffff"
     bordercolor="#666666"
     borderopacity="1"
     objecttolerance="10"
     gridtolerance="10"
     guidetolerance="10"
     inkscape:pageopacity="0"
     inkscape:pageshadow="2"
     inkscape:window-width="1920"
     inkscape:window-height="986"
     id="namedview2182"
     showgrid="false"
     inkscape:zoom="0.47158032"
     inkscape:cx="345.08287"
     inkscape:cy="653.35143"
     inkscape:window-x="-11"
     inkscape:window-y="-11"
     inkscape:window-maximized="1"
     inkscape:current-layer="layer6"
     inkscape:document-rotation="0"
     fit-margin-top="0"
     fit-margin-left="0"
     fit-margin-right="0"
     fit-margin-bottom="0" />
  <g
     inkscape:groupmode="layer"
     id="layer6"
     inkscape:label="Color"
     transform="translate(-831.58423,-274.8424)">
    <ellipse
       style="fill:#000000;fill-opacity:1;stroke:#000000;stroke-width:0.657831;stroke-linecap:round"
       id="path2193"
       cx="1346.7159"
       cy="559.62463"
       rx="26.156357"
       ry="20.110306" />
    <ellipse
       style="fill:#000000;fill-opacity:1;stroke:#000000;stroke-width:0.805259;stroke-linecap:round"
       id="path2193-1"
       cx="1522.6877"
       cy="558.98828"
       rx="30.219414"
       ry="26.08264" />
    <path
       style="fill:none;stroke:#000000;stroke-width:27.2085;stroke-linecap:round;stroke-linejoin:miter;stroke-miterlimit:4;stroke-dasharray:none;stroke-opacity:1"
       d="m 1244.2514,584.12706 1.2728,78.28046"
       id="path2776"
       sodipodi:nodetypes="cc" />
    <path
       style="fill:none;stroke:#000000;stroke-width:13.6043;stroke-linecap:round;stroke-linejoin:miter;stroke-miterlimit:4;stroke-dasharray:none;stroke-opacity:1"
       d="m 1320.6225,624.2219 c -29.2756,13.36501 -44.5499,89.73606 -36.2763,99.91894"
       id="path2778" />
    <path
       style="fill:none;stroke:#000000;stroke-width:13.6043;stroke-linecap:round;stroke-linejoin:miter;stroke-miterlimit:4;stroke-dasharray:none;stroke-opacity:1"
       d="m 1509.0046,608.31126 c 38.822,7.00066 75.7348,82.099 66.8248,100.55535"
       id="path2780" />
    <path
       style="fill:none;stroke:#000000;stroke-width:13.6043;stroke-linecap:round;stroke-linejoin:round;stroke-miterlimit:4;stroke-dasharray:none;stroke-opacity:1"
       d="m 1472.7283,661.77102 -60.4604,-53.45976 h 54.0962 l -66.8247,55.36907"
       id="path2782" />
    <path
       style="fill:none;stroke:#000000;stroke-width:13.6043;stroke-linecap:round;stroke-linejoin:round;stroke-miterlimit:4;stroke-dasharray:none;stroke-opacity:1"
       d="m 1196.5194,487.39033 c 0,0 450.5897,-38.82202 477.3196,-8.27356 26.7298,30.54846 8.2735,744.61843 8.2735,744.61843 0,0 7.0007,29.9121 -44.5498,39.4585 -51.5505,9.5463 -357.6715,81.4626 -357.6715,81.4626 l -24.1841,-465.86395 c 0,0 -8.2736,-15.27423 20.3655,-20.36567 28.6393,-5.09144 411.7677,-134.92234 411.7677,-134.92234 0,0 -483.0474,41.36775 -498.958,27.36633"
       id="path2786"
       sodipodi:nodetypes="cscsccscc" />
    <path
       style="fill:none;stroke:#000000;stroke-width:27.2085;stroke-linecap:round;stroke-linejoin:miter;stroke-miterlimit:4;stroke-dasharray:none;stroke-opacity:1"
       d="m 1301.5298,936.70714 26.7299,297.21096"
       id="path2788" />
    <path
       style="fill:none;stroke:#000000;stroke-width:13.6043;stroke-linecap:round;stroke-linejoin:miter;stroke-miterlimit:4;stroke-dasharray:none;stroke-opacity:1"
       d="m 1452.3627,862.88172 c -87.1903,15.27423 -80.1896,86.55393 -80.1896,86.55393 0,0 9.5463,208.11135 36.9127,253.29755 27.3663,45.1862 145.7415,34.367 168.0164,-28.6392 22.2749,-63.0061 8.74,-244.32594 -37.5491,-293.39242 -31.8214,-33.73059 -87.1904,-17.81986 -87.1904,-17.81986 z"
       id="path2790"
       sodipodi:nodetypes="ccsssc" />
    <path
       style="fill:none;stroke:#000000;stroke-width:13.6043;stroke-linecap:round;stroke-linejoin:miter;stroke-miterlimit:4;stroke-dasharray:none;stroke-opacity:1"
       d="m 1355.6259,1332.5641 c 17.1836,28.6392 26.7299,37.5492 48.3684,-13.365"
       id="path2792" />
    <path
       style="fill:none;stroke:#000000;stroke-width:13.6043;stroke-linecap:round;stroke-linejoin:miter;stroke-miterlimit:4;stroke-dasharray:none;stroke-opacity:1"
       d="m 1465.7276,1301.3793 c 31.8213,69.3704 78.2804,87.1903 92.2818,-20.3657"
       id="path2796" />
    <path
       style="fill:none;stroke:#000000;stroke-width:13.6043;stroke-linecap:round;stroke-linejoin:round;stroke-miterlimit:4;stroke-dasharray:none;stroke-opacity:1"
       d="m 1196.5194,487.39033 c -29.912,69.3704 14.0014,783.44047 14.0014,783.44047 l 64.279,-5.7278"
       id="path2798" />
    <path
       style="fill:none;stroke:#000000;stroke-width:13.6043;stroke-linecap:round;stroke-linejoin:miter;stroke-miterlimit:4;stroke-dasharray:none;stroke-opacity:1"
       d="m 1188.8823,783.96485 c -58.5512,68.09758 -45.8227,152.74229 3.1821,85.91753"
       id="path2800" />
    <path
       style="fill:none;stroke:#000000;stroke-width:13.6043;stroke-linecap:round;stroke-linejoin:miter;stroke-miterlimit:4;stroke-dasharray:none;stroke-opacity:1"
       d="m 1688.4767,783.32844 c 52.187,57.91479 59.8241,122.83024 -0.6364,64.91546"
       id="path2802" />
    <path
       style="fill:none;stroke:#000000;stroke-width:13.6043;stroke-linecap:round;stroke-linejoin:miter;stroke-miterlimit:4;stroke-dasharray:none;stroke-opacity:1"
       d="m 1251.8884,482.9353 c -66.1882,-112.01095 142.5595,-158.47005 96.7369,-8.27347"
       id="path2804"
       sodipodi:nodetypes="cc" />
    <path
       style="fill:none;stroke:#000000;stroke-width:13.6043;stroke-linecap:round;stroke-linejoin:miter;stroke-miterlimit:4;stroke-dasharray:none;stroke-opacity:1"
       d="m 1281.8005,478.48036 c -19.0928,-43.91337 52.1869,-75.09824 40.7313,-2.54572"
       id="path2806" />
    <path
       style="fill:none;stroke:#000000;stroke-width:13.6043;stroke-linecap:round;stroke-linejoin:miter;stroke-miterlimit:4;stroke-dasharray:none;stroke-opacity:1"
       d="m 1497.5489,468.29757 c -57.2783,-106.91961 180.745,-149.56015 116.466,-1.90931"
       id="path2808"
       sodipodi:nodetypes="cc" />
    <path
       style="fill:none;stroke:#000000;stroke-width:13.6043;stroke-linecap:round;stroke-linejoin:miter;stroke-miterlimit:4;stroke-dasharray:none;stroke-opacity:1"
       d="m 1531.916,467.66107 c -21.6385,-49.00472 76.3711,-74.46183 64.279,-0.6364"
       id="path2810"
       sodipodi:nodetypes="cc" />
    <path
       style="fill:#c16d35;fill-opacity:1;stroke:none;stroke-width:1.36908"
       d="m 1197.8043,745.95364 c -2.8175,-0.65418 -2.9773,-1.66253 -3.9452,-24.89607 -1.3504,-32.41206 0.1295,-164.81897 2.0918,-187.15563 1.4237,-16.20721 4.6742,-38.72443 5.7305,-39.69741 0.966,-0.88981 117.3683,-9.25825 179.7777,-12.92459 84.5093,-4.96465 117.0534,-6.0714 180.7184,-6.14568 61.288,-0.0716 77.4586,0.729 96.2873,4.76711 3.7272,0.7993 7.7934,2.19673 9.0361,3.1054 6.5868,4.81636 11.1512,66.50579 12.6486,170.95005 l 0.8968,62.55357 -3.3022,0.68593 c -3.6668,0.76175 -8.0485,1.11854 -119.4212,9.72605 -89.956,6.95223 -184.4657,13.43012 -239.8413,16.43911 -39.7217,2.15837 -115.5323,3.78689 -120.6773,2.59216 z m 92.7691,-18.62233 c 1.034,-1.93217 0.9668,-3.83459 -0.2383,-6.74417 -2.1715,-5.24245 -0.8984,-20.84373 2.9225,-35.81277 6.6177,-25.92527 16.917,-45.38417 28.0904,-53.07158 7.1002,-4.88511 8.0309,-9.49196 2.6319,-13.02943 -3.2215,-2.11084 -3.7084,-2.04681 -9.2413,1.2154 -14.6092,8.61331 -26.5871,29.57022 -34.9063,61.07261 -2.6435,10.00993 -3.5043,16.80244 -3.6289,28.63534 -0.1606,15.25609 -0.102,15.56554 3.5459,18.71121 4.2133,3.63324 8.5672,3.24035 10.8241,-0.97661 z m 290.8871,-15.43376 c 4.7028,-7.17743 1.5307,-26.46999 -7.7125,-46.9084 -10.4135,-23.02603 -33.87,-50.74099 -49.3576,-58.31838 -14.2227,-6.95849 -21.7678,-6.25043 -21.7678,2.04291 0,3.03982 0.8814,4.33314 3.7649,5.52487 19.4288,8.02896 26.3954,13.4255 38.6302,29.92411 15.2489,20.56302 25.6425,45.68456 24.3721,58.90699 -0.4316,4.49122 -0.01,7.64315 1.2823,9.48145 2.6907,3.84157 8.056,3.51652 10.7884,-0.65355 z m -326.3396,-40.49417 4.1982,-4.19818 -0.695,-43.46253 c -0.4672,-29.21098 -1.2182,-44.43995 -2.2905,-46.4435 -4.1078,-7.67552 -15.9354,-8.84123 -22.1738,-2.18557 l -3.2993,3.52015 0.5012,43.34989 c 0.5225,45.189 0.9882,48.82025 6.6864,52.13914 1.3178,0.76755 4.7536,1.41421 7.6353,1.43716 4.0537,0.0317 6.1894,-0.9085 9.4375,-4.15656 z m 164.7688,-15.65352 c 9.5349,-7.90634 17.7978,-14.37526 18.3621,-14.37526 0.5644,0 7.9682,6.16083 16.453,13.69079 8.4849,7.52987 16.5327,13.69078 17.8838,13.69078 1.3513,0 3.425,-0.96817 4.6083,-2.15147 4.5812,-4.58128 2.6737,-7.85727 -12.2239,-20.99409 -7.9065,-6.97182 -14.3754,-13.21863 -14.3754,-13.8817 0,-0.66298 4.8871,-5.29641 10.8603,-10.29634 5.9732,-4.99993 11.2239,-10.03831 11.6682,-11.1963 0.4444,-1.15791 -0.1519,-3.57031 -1.3251,-5.36072 l -2.1329,-3.25541 -31.0661,0.36786 -31.0661,0.36786 -1.3922,3.96102 c -1.3359,3.80103 -0.9315,4.3861 10.0104,14.48119 l 11.4025,10.52017 -16.2034,13.51411 c -8.9118,7.43274 -16.6559,14.16204 -17.2091,14.95399 -1.5497,2.21831 -1.2314,6.86952 0.5951,8.69602 3.6639,3.6639 8.0626,1.43707 25.1505,-12.7325 z m 118.152,-74.0985 c 10.2287,-5.09716 14.5522,-11.99624 14.5522,-23.22121 0,-7.44688 -0.5303,-9.19757 -4.1771,-13.79082 -12.6258,-15.90202 -39.8853,-15.96895 -51.3618,-0.12597 -7.3102,10.09136 -6.651,21.01341 1.8526,30.69855 9.2434,10.52762 25.5468,13.21029 39.1341,6.43954 z m -176.7858,-5.3892 c 9.2237,-4.59633 13.6059,-12.59174 11.3972,-20.79438 -2.6573,-9.86844 -12.5911,-15.9734 -26.1055,-16.04341 -26.7118,-0.1385 -36.1892,27.26339 -13.0628,37.76823 8.1956,3.72286 19.1712,3.35509 27.7711,-0.93044 z"
       id="path2813" />
    <path
       style="fill:#c16d35;fill-opacity:1;stroke:none;stroke-width:1.36908"
       d="m 1286.3081,1334.821 c 0,-6.0152 -23.3922,-452.12359 -23.9571,-456.88064 -0.9506,-8.0061 0.5772,-9.19112 17.1117,-13.27204 22.203,-5.47989 97.3043,-29.72413 248.6434,-80.26713 l 152.1232,-50.80493 0.6915,17.20902 c 1.3126,32.669 -1.3018,271.63592 -4.5545,416.29552 -1.6023,71.259 -1.5554,70.8988 -10.0646,77.3891 -8.0965,6.1755 -17.2359,9.0224 -55.0433,17.146 -44.7573,9.6168 -108.7821,24.186 -229.1147,52.1361 -102.7523,23.8667 -95.8356,22.3476 -95.8356,21.049 z m 50.1839,-89.8591 c 6.3674,-5.2845 6.6779,1.0723 -7.8193,-160.0354 -7.4781,-83.1026 -13.9448,-152.19316 -14.3706,-153.53472 -1.358,-4.27863 -7.4778,-7.98706 -13.1809,-7.98706 -5.9393,0 -11.3816,4.1921 -12.7333,9.80794 -1.1024,4.5801 26.1268,304.24334 27.9559,307.66114 3.3991,6.3513 14.6666,8.6375 20.1482,4.0881 z M 1513.5752,1232.2 c 40.0127,-11.0413 64.7467,-33.3851 73.1639,-66.0937 9.2905,-36.1025 9.9105,-106.9157 1.4475,-165.3487 -9.8011,-67.67128 -27.9655,-114.0736 -51.6567,-131.96066 -15.5284,-11.72406 -30.1646,-15.92723 -55.1281,-15.83146 -19.0523,0.0735 -34.3158,2.74162 -53.8178,9.40898 -31.1844,10.66139 -52.9286,33.63091 -59.9768,63.35658 -2.5778,10.87189 -2.0495,40.51322 1.52,85.29476 7.8868,98.94 18.9429,165.4352 31.7066,190.6933 8.5029,16.8265 25.3966,28.1134 49.7638,33.2478 14.6811,3.0934 46.8641,1.6795 62.9776,-2.7669 z"
       id="path2815" />
    <path
       style="fill:#c16d35;fill-opacity:1;stroke:none;stroke-width:1.36908"
       d="m 1285.8288,467.79186 c -2.2464,-14.0484 8.3191,-28.5714 19.9406,-27.40978 6.9796,0.69763 9.889,6.12183 10.4481,19.47867 l 0.4741,11.32755 -9.3731,0.88509 c -5.1552,0.48676 -11.9128,0.88945 -15.0168,0.8948 -5.4752,0.009 -5.6683,-0.14502 -6.4729,-5.17633 z"
       id="path2817" />
    <path
       style="fill:#c16d35;fill-opacity:1;stroke:none;stroke-width:1.36908"
       d="m 1536.0115,457.10952 c -2.095,-8.34749 4.8946,-20.2201 15.0433,-25.5527 8.2615,-4.34094 23.1185,-4.2829 29.2837,0.11445 6.0453,4.31192 8.7628,10.08403 9.5882,20.36631 l 0.6918,8.61866 h -26.8584 -26.8584 z"
       id="path2819" />
    <path
       style="fill:#854b25;fill-opacity:1;stroke:none;stroke-width:1.36908"
       d="m 1499.5482,455.70755 c -2.5159,-5.45567 -3.0834,-9.08583 -3.0788,-19.6947 0.01,-11.56888 0.4262,-13.80606 3.8119,-20.24314 7.7289,-14.69469 20.1672,-24.76647 39.7238,-32.16586 10.385,-3.92926 12.5439,-4.25115 29.0178,-4.32645 15.5212,-0.0709 18.627,0.30158 24.2783,2.912 9.8667,4.55757 15.272,9.28663 19.6537,17.19461 3.7651,6.79542 3.983,8.06515 3.9367,22.93805 -0.042,13.46078 -0.5968,17.38262 -3.8246,27.03929 -2.8756,8.60297 -4.3667,11.29489 -6.2564,11.29489 -2.0957,0 -2.6017,-1.54173 -3.2586,-9.92585 -0.9048,-11.54993 -3.3913,-18.15951 -9.4108,-25.01533 -7.431,-8.4633 -13.7139,-10.91089 -27.8565,-10.85194 -14.5837,0.0608 -21.7503,2.73573 -31.5627,11.78047 -8.1762,7.53658 -11.7617,14.75908 -12.6171,25.41566 -0.6234,7.76541 -0.9845,8.59699 -3.7343,8.59699 -1.6742,0 -5.9003,0.39144 -9.391,0.86995 l -6.3469,0.86994 z"
       id="path2821" />
    <path
       style="fill:#854b25;fill-opacity:1;stroke:none;stroke-width:1.36908"
       d="m 1251.5822,466.90232 c -9.6527,-24.11201 -6.8757,-44.93333 8.133,-60.97883 11.4464,-12.23713 27.5286,-19.2041 44.2972,-19.18987 11.4294,0.01 17.4139,1.69548 25.6201,7.21694 13.8432,9.31411 19.1728,23.38781 17.8617,47.16697 -0.4472,8.11086 -1.6505,17.82738 -2.6739,21.59232 l -1.8609,6.84539 -6.4203,0.41729 -6.4204,0.41729 v -10.171 c 0,-21.5116 -9.2658,-34.01773 -25.2039,-34.01773 -18.2015,0 -32.9067,17.02619 -32.8835,38.07343 l 0.011,9.7792 -6.0644,0.83113 c -10.6467,1.45937 -10.6069,1.48141 -14.3956,-7.98253 z"
       id="path2823" />
    <path
       style="fill:#854b25;fill-opacity:1;stroke:none;stroke-width:1.36908"
       d="m 1160.513,886.53853 c -4.7871,-2.95856 -4.1278,-23.8675 1.2981,-41.1713 4.9435,-15.76562 17.4317,-39.15914 19.6543,-36.81794 0.2806,0.29558 0.9618,14.29137 1.5137,31.1017 l 1.0036,30.56424 -8.0987,7.87578 c -8.0337,7.81256 -12.4613,10.24582 -15.371,8.44752 z"
       id="path2825" />
    <path
       style="fill:#854b25;fill-opacity:1;stroke:none;stroke-width:1.36908"
       d="m 1712.7516,859.50414 c -2.9984,-2.0137 -8.0701,-5.78444 -11.2704,-8.37941 l -5.8185,-4.71823 v -20.37129 c 0,-11.2041 0.5288,-20.3712 1.1752,-20.3712 2.9887,0 19.2138,28.25478 23.3642,40.6869 5.477,16.40619 3.2495,20.33873 -7.4505,13.15323 z"
       id="path2827" />
    <path
       style="fill:#854b25;fill-opacity:1;stroke:none;stroke-width:1.36908"
       d="m 1511.5216,1349.0603 c -8.7601,-5.0044 -13.785,-9.4973 -20.3499,-18.1951 -7.6652,-10.1556 -15.6381,-23.5948 -14.5231,-24.4804 0.8654,-0.6875 68.6587,-16.067 70.8237,-16.067 2.4438,0 2.131,3.4115 -1.7101,18.6493 -3.9249,15.5709 -11.0324,30.9658 -16.8817,36.5659 -4.5371,4.3438 -12.9405,6.0514 -17.3589,3.5273 z"
       id="path2829" />
    <path
       style="fill:#854b25;fill-opacity:1;stroke:none;stroke-width:1.36908"
       d="m 1373.3388,1345.4862 c -3.7856,-3.7855 -9.6317,-12.6021 -8.807,-13.2818 1.0379,-0.8555 27.4312,-6.5111 27.9525,-5.9898 1.415,1.4149 -10.7563,20.9457 -13.7749,22.104 -1.0088,0.3872 -3.4256,-0.8874 -5.3706,-2.8324 z"
       id="path2831" />
    <path
       style="fill:#e8c3aa;fill-opacity:1;stroke:none;stroke-width:1.36908"
       d="m 1452.9422,1221.2194 c -17.1994,-3.5906 -31.147,-11.5833 -37.344,-21.4 -13.6046,-21.5511 -25.3319,-92.6175 -33.4136,-202.48442 -4.3368,-58.95624 -3.7833,-67.40503 5.6305,-85.9519 6.1572,-12.13064 19.7533,-24.64575 34.3416,-31.6114 18.7815,-8.96775 47.605,-14.77586 66.2753,-13.35503 35.4173,2.69546 53.8335,19.21094 68.8897,61.77985 25.6739,72.5889 31.2033,206.4113 10.303,249.3527 -9.055,18.6045 -31.7455,34.6854 -58.8413,41.7015 -14.331,3.7108 -42.7051,4.7112 -55.8412,1.9687 z"
       id="path2833" />
    <path
       style="fill:#000000;fill-opacity:1;stroke:#000000;stroke-width:1.36908;stroke-opacity:1"
       d="m 1435.3012,619.55001 c -4.1852,-3.39308 -2.8442,-4.44315 5.0143,-3.92664 l 6.4413,0.42328 -4.1347,3.04318 c -4.0719,2.99702 -4.1831,3.004 -7.3209,0.46018 z"
       id="path2839" />
    <path
       style="fill:#fffae5;fill-opacity:1;stroke:none;stroke-width:1.36908"
       d="m 1216.4769,1257.8022 c 0,-2.8237 -1.2219,-26.389 -2.7053,-52.3672 -5.5088,-96.4729 -12.2487,-238.23255 -15.1015,-317.62629 -1.3459,-37.45742 -4.0123,-119.58163 -4.0674,-125.27066 -0.025,-2.64884 0.7221,-2.72285 22.9074,-2.26729 47.6979,0.97942 161.2489,-5.51153 345.1853,-19.7318 34.1695,-2.64167 62.3767,-4.5528 62.6826,-4.24697 0.732,0.73209 -102.554,35.71789 -198.7393,67.3185 -95.4685,31.36517 -134.9895,43.8751 -149.8622,47.43715 -13.3179,3.18966 -19.8473,6.21062 -24.6953,11.42586 -4.3515,4.68113 -4.9087,-12.68525 6.8067,212.1335 5.2557,100.8567 9.4146,183.5169 9.2419,183.6896 -0.4044,0.4044 -44.8894,4.6397 -48.7334,4.6397 -2.4499,0 -2.9126,-0.8137 -2.9195,-5.1341 z"
       id="path2841" />
  </g>
</svg>
