<?xml version="1.0" encoding="UTF-8" standalone="no"?>
<svg
   xmlns:dc="http://purl.org/dc/elements/1.1/"
   xmlns:cc="http://creativecommons.org/ns#"
   xmlns:rdf="http://www.w3.org/1999/02/22-rdf-syntax-ns#"
   xmlns:svg="http://www.w3.org/2000/svg"
   xmlns="http://www.w3.org/2000/svg"
   xmlns:sodipodi="http://sodipodi.sourceforge.net/DTD/sodipodi-0.dtd"
   xmlns:inkscape="http://www.inkscape.org/namespaces/inkscape"
   version="1.1"
   id="svg2843"
   width="1200"
   height="1200"
   viewBox="0 0 1200 1200"
   sodipodi:docname="Recipes2.svg"
   inkscape:version="1.0.2-2 (e86c870879, 2021-01-15)">
  <metadata
     id="metadata2849">
    <rdf:RDF>
      <cc:Work
         rdf:about="">
        <dc:format>image/svg+xml</dc:format>
        <dc:type
           rdf:resource="http://purl.org/dc/dcmitype/StillImage" />
        <dc:title></dc:title>
      </cc:Work>
    </rdf:RDF>
  </metadata>
  <defs
     id="defs2847" />
  <sodipodi:namedview
     pagecolor="#ffffff"
     bordercolor="#666666"
     borderopacity="1"
     objecttolerance="10"
     gridtolerance="10"
     guidetolerance="10"
     inkscape:pageopacity="0"
     inkscape:pageshadow="2"
     inkscape:window-width="1920"
     inkscape:window-height="986"
     id="namedview2845"
     showgrid="false"
     inkscape:zoom="0.54"
     inkscape:cx="287.72952"
     inkscape:cy="482.56246"
     inkscape:window-x="-11"
     inkscape:window-y="-11"
     inkscape:window-maximized="1"
     inkscape:current-layer="layer8"
     inkscape:document-rotation="0"
     fit-margin-top="0"
     fit-margin-left="0"
     fit-margin-right="0"
     fit-margin-bottom="0"
     scale-x="1.3"
     viewbox-width="1000"
     lock-margins="true" />
  <g
     inkscape:groupmode="layer"
     id="layer8"
     inkscape:label="Color"
     transform="translate(-709.59996,-195.27705)"
     style="display:inline">
    <path
       style="display:inline;fill:none;stroke:#000000;stroke-width:11.0999;stroke-linecap:round;stroke-linejoin:round;stroke-miterlimit:4;stroke-dasharray:none;stroke-opacity:1"
       d="m 1163.2027,843.80739 c 0,87.0333 -243.29144,132.4845 -224.52074,-8.8294 11.4351,-86.08807 225.98684,-71.86135 224.52074,8.8294 z"
       id="path2856"
       sodipodi:nodetypes="csc" />
    <path
       style="display:inline;fill:none;stroke:#000000;stroke-width:11.0999;stroke-linecap:round;stroke-linejoin:miter;stroke-miterlimit:4;stroke-dasharray:none;stroke-opacity:1"
       d="m 1272.9404,838.76199 c -31.5338,109.7377 246.1837,139.1339 232.0888,-8.8294 -7.2543,-76.15262 -220.9128,-76.83413 -232.0888,8.8294 z"
       id="path3419"
       sodipodi:nodetypes="csc" />
    <path
       style="display:inline;fill:none;stroke:#000000;stroke-width:11.0999;stroke-linecap:round;stroke-linejoin:miter;stroke-miterlimit:4;stroke-dasharray:none;stroke-opacity:1"
       d="m 1163.2027,843.80739 c 26.4885,-32.7951 109.7377,-5.0454 109.7377,-5.0454"
       id="path3421" />
    <path
       style="display:inline;fill:none;stroke:#000000;stroke-width:11.0999;stroke-linecap:round;stroke-linejoin:miter;stroke-miterlimit:4;stroke-dasharray:none;stroke-opacity:1"
       d="m 1503.7679,829.93259 c 0,0 110.4354,-2.6301 134.4011,-19.0276 23.9657,-16.3976 63.6312,-90.71007 103.9944,-85.66466 40.3634,5.04541 42.886,47.93138 42.886,47.93138"
       id="path3423"
       sodipodi:nodetypes="cssc" />
    <path
       style="display:inline;fill:none;stroke:#000000;stroke-width:11.0999;stroke-linecap:round;stroke-linejoin:miter;stroke-miterlimit:4;stroke-dasharray:none;stroke-opacity:1"
       d="m 936.40086,837.42019 c 0,0 -98.466,6.602 -98.466,-9.7956"
       id="path3425"
       sodipodi:nodetypes="cc" />
    <path
       style="display:inline;fill:none;stroke:#000000;stroke-width:11.0999;stroke-linecap:round;stroke-linejoin:round;stroke-miterlimit:4;stroke-dasharray:none;stroke-opacity:1"
       d="M 1047.1584,533.51479 837.77386,716.41087 c 0,0 -7.5682,407.41683 12.6135,427.59843 20.1817,20.1816 749.24324,17.659 800.95874,-34.0565 51.7155,-51.7155 156.4077,-171.54391 156.4077,-171.54391 l -39.1019,-392.28059 -143.7942,169.02121 -785.82254,2.52271"
       id="path3427"
       sodipodi:nodetypes="ccsscccc" />
    <path
       style="display:inline;fill:none;stroke:#000000;stroke-width:11.0999;stroke-linecap:round;stroke-linejoin:miter;stroke-miterlimit:4;stroke-dasharray:none;stroke-opacity:1"
       d="m 1624.8577,715.14951 c 36.4716,130.15248 19.41,406.12769 22.7044,398.98989"
       id="path3429"
       sodipodi:nodetypes="cc" />
    <path
       style="display:inline;fill:none;stroke:#000000;stroke-width:11.0999;stroke-linecap:round;stroke-linejoin:miter;stroke-miterlimit:4;stroke-dasharray:none;stroke-opacity:1"
       d="m 984.09066,667.21812 580.22204,5.04541"
       id="path3431" />
    <path
       style="display:inline;fill:none;stroke:#000000;stroke-width:11.0999;stroke-linecap:round;stroke-linejoin:miter;stroke-miterlimit:4;stroke-dasharray:none;stroke-opacity:1"
       d="m 1600.892,618.02538 -572.654,5.04542"
       id="path3433" />
    <path
       style="display:inline;fill:none;stroke:#000000;stroke-width:11.0999;stroke-linecap:round;stroke-linejoin:miter;stroke-miterlimit:4;stroke-dasharray:none;stroke-opacity:1"
       d="m 1634.9485,580.18481 -553.7336,5.04542"
       id="path3435" />
    <path
       style="display:inline;fill:none;stroke:#000000;stroke-width:11.0999;stroke-linecap:round;stroke-linejoin:round;stroke-miterlimit:4;stroke-dasharray:none;stroke-opacity:1"
       d="m 1768.6519,546.1283 15.1361,-85.77194 -124.8739,-40.36328 -836.27654,37.84057 -3.784,81.9879 821.14034,-29.01111 z"
       id="path3437" />
    <path
       style="display:inline;fill:none;stroke:#000000;stroke-width:11.0999;stroke-linecap:round;stroke-linejoin:miter;stroke-miterlimit:4;stroke-dasharray:none;stroke-opacity:1"
       d="m 1658.9141,419.99308 -18.9202,90.81736"
       id="path3439" />
    <path
       style="display:inline;fill:none;stroke:#000000;stroke-width:11.0999;stroke-linecap:round;stroke-linejoin:miter;stroke-miterlimit:4;stroke-dasharray:none;stroke-opacity:1"
       d="m 934.89796,945.97699 -20.1816,35.3179"
       id="path3441" />
    <path
       style="display:inline;fill:none;stroke:#000000;stroke-width:11.0999;stroke-linecap:round;stroke-linejoin:miter;stroke-miterlimit:4;stroke-dasharray:none;stroke-opacity:1"
       d="m 1014.3632,944.71559 -20.18174,35.3179"
       id="path3441-9" />
    <path
       style="display:inline;fill:none;stroke:#000000;stroke-width:11.0999;stroke-linecap:round;stroke-linejoin:miter;stroke-miterlimit:4;stroke-dasharray:none;stroke-opacity:1"
       d="m 967.69316,945.97699 -20.1816,35.3179"
       id="path3441-9-2" />
    <path
       style="display:inline;fill:none;stroke:#000000;stroke-width:11.0999;stroke-linecap:round;stroke-linejoin:miter;stroke-miterlimit:4;stroke-dasharray:none;stroke-opacity:1"
       d="m 1566.8354,934.62479 -20.1815,35.3179"
       id="path3441-9-2-9" />
    <path
       style="display:inline;fill:none;stroke:#000000;stroke-width:11.0999;stroke-linecap:round;stroke-linejoin:miter;stroke-miterlimit:4;stroke-dasharray:none;stroke-opacity:1"
       d="m 1511.336,942.19289 -20.1816,35.3179"
       id="path3441-9-2-9-0" />
    <path
       style="display:inline;fill:none;stroke:#000000;stroke-width:11.0999;stroke-linecap:round;stroke-linejoin:miter;stroke-miterlimit:4;stroke-dasharray:none;stroke-opacity:1"
       d="m 1463.4046,945.97699 -20.1816,35.3179"
       id="path3441-9-2-9-0-2" />
    <path
       style="display:inline;fill:none;stroke:#000000;stroke-width:22.1998;stroke-linecap:round;stroke-linejoin:round;stroke-miterlimit:4;stroke-dasharray:none;stroke-opacity:1"
       d="m 1313.3037,1065.8054 c -40.5607,-5.302 -111.3174,-78.84821 -126.5646,-117.57411 -4.0633,-10.3201 91.8314,-10.6708 82.4173,7.8365 -14.9856,29.4602 -77.5329,104.55811 -99.6468,105.95361"
       id="path3543"
       sodipodi:nodetypes="cssc" />
    <path
       style="display:inline;fill:none;stroke:#000000;stroke-width:11.0999;stroke-linecap:round;stroke-linejoin:miter;stroke-miterlimit:4;stroke-dasharray:none;stroke-opacity:1"
       d="m 1195.1659,1047.3683 c 18.8936,37.1964 68.4887,18.8934 74.9835,-3.5426"
       id="path3545" />
    <ellipse
       style="display:inline;fill:#000000;fill-opacity:0.983333;stroke:#000000;stroke-width:12.8024;stroke-linecap:round;stroke-linejoin:round;stroke-miterlimit:4;stroke-dasharray:none"
       id="path3547"
       cx="1072.949"
       cy="850.75836"
       rx="57.009911"
       ry="45.791927" />
    <ellipse
       style="display:inline;fill:#000000;fill-opacity:1;stroke:#000000;stroke-width:11.6547;stroke-linecap:round;stroke-linejoin:round;stroke-miterlimit:4;stroke-dasharray:none"
       id="path3547-6"
       cx="1395.0232"
       cy="849.57745"
       rx="46.66103"
       ry="46.365822" />
    <path
       style="display:inline;fill:#a0a0a0;stroke:none;stroke-width:2.06548"
       d="m 924.77106,1146.959 c -45.5988,-2.2998 -67.4713,-5.2095 -70.5707,-9.3882 -6.3401,-8.5478 -9.0001,-55.1888 -10.3183,-180.91711 l -1.2272,-117.0558 9.0432,2.1063 c 4.9738,1.1585 24.9519,2.1382 44.396,2.1772 l 35.3526,0.071 1.1963,14.2701 c 2.7319,32.5853 23.2196,56.7095 57.4322,67.6261 21.44024,6.8412 61.80034,6.3169 89.59864,-1.1638 17.9754,-4.8374 47.885,-19.3742 60.446,-29.3784 13.6321,-10.8571 24.4537,-27.0153 27.4191,-40.9406 2.1168,-9.9399 2.9972,-11.0813 11.9493,-15.4897 8.4973,-4.1844 12.407,-4.716 32.3843,-4.4033 13.9665,0.2186 28.5362,1.8096 37.8158,4.1295 l 15.0956,3.7738 0.5267,14.4584 c 0.6543,17.9659 6.9818,31.2379 21.2595,44.593 24.2329,22.667 60.4602,34.9279 103.2021,34.9279 68.118,0 116.8379,-34.7189 120.1025,-85.5875 l 0.949,-14.7889 34.5758,-2.5346 c 37.0598,-2.7166 65.4084,-6.7121 80.9793,-11.4133 l 9.6728,-2.9204 1.2342,12.6654 c 4.7744,48.994 7.3986,248.87561 3.5559,270.85021 -1.345,7.6921 -2.1559,8.4982 -11.7574,11.6886 -23.5142,7.8135 -66.3347,14.5094 -129.6102,20.2674 -42.2866,3.8481 -73.0966,5.8633 -161.6075,10.5702 -52.3979,2.7865 -366.43624,4.16 -413.09554,1.8067 z m 395.89274,-73.5697 c 2.0775,-1.8801 3.7772,-5.5452 3.7772,-8.1448 0,-4.915 -6.8643,-11.1378 -12.3361,-11.1832 -8.5401,-0.071 -34.1625,-16.5131 -58.6158,-37.6148 l -7.955,-6.8645 13.8728,-18.54051 c 18.222,-24.353 23.0971,-34.2754 20.4869,-41.6978 -4.7696,-13.5622 -29.012,-20.3646 -66.8472,-18.7574 -31.7114,1.3471 -41.3028,7.896 -35.5853,24.2971 2.7675,7.9386 17.893,31.1848 28.8221,44.2963 6.4543,7.74301 8.0179,10.98961 6.5835,13.66981 -3.6702,6.8578 -32.48,32.0257 -42.4791,37.1094 -8.0491,4.0921 -10.2902,6.3639 -10.8178,10.9662 -1.4986,13.0693 11.2722,15.6462 27.2676,5.5023 l 9.8543,-6.2495 6.1054,5.1374 c 6.4155,5.3983 17.803,9.396 26.8199,9.4154 8.797,0.019 24.3021,-5.4692 31.9657,-11.3146 l 7.182,-5.4779 7.4769,4.621 c 10.5073,6.4938 29.7039,14.1412 35.6438,14.1995 2.7505,0.027 6.7007,-1.4893 8.7782,-3.3694 z M 929.62196,966.90569 c 10.9918,-19.2108 12.3004,-24.8115 6.0775,-26.01 -3.6541,-0.7037 -7.6855,4.7955 -20.3421,27.7489 -5.8622,10.6312 -6.5556,13.1843 -4.3145,15.8846 1.4686,1.7695 3.8188,2.7766 5.2228,2.2378 1.4039,-0.5386 7.4143,-9.4763 13.3563,-19.8613 z m 33.069,-0.6566 c 10.9069,-19.3848 12.3493,-26.7874 4.945,-25.3799 -3.7253,0.7081 -22.3318,29.8812 -24.5974,38.5664 -1.311,5.0258 2.0877,8.9381 6.3453,7.3044 1.247,-0.4786 7.2351,-9.6995 13.3071,-20.4909 z m 495.71464,0 c 10.907,-19.3848 12.3493,-26.7874 4.945,-25.3799 -3.7254,0.7081 -22.3317,29.8812 -24.5973,38.5664 -1.311,5.0258 2.0877,8.9381 6.3453,7.3044 1.2467,-0.4786 7.2351,-9.6995 13.307,-20.4909 z m -448.9332,-1.1852 c 10.713,-18.9206 11.512,-21.1634 8.5835,-24.0919 -4.5578,-4.5578 -7.2537,-1.7866 -19.90044,20.4564 -8.4424,14.8486 -10.1093,19.2463 -8.1773,21.5743 4.6671,5.6235 7.7696,2.7683 19.49424,-17.9388 z m 496.137,-0.9903 c 11.2237,-19.1363 12.885,-26.6856 5.8724,-26.6856 -2.8755,0 -7.099,5.2781 -14.8748,18.5892 -11.1694,19.1204 -12.9584,24.7144 -8.4769,26.5071 4.8438,1.9374 6.6781,0 17.4793,-18.4107 z m 55.77,-8.1152 c 11.2287,-19.1906 12.8969,-24.5986 8.1498,-26.4203 -4.4681,-1.7145 -6.5818,0.6628 -17.6833,19.8892 -10.4277,18.0592 -11.8886,22.0592 -9.0813,24.8664 3.6668,3.667 8.5624,-1.155 18.6148,-18.3353 z"
       id="path3576" />
    <path
       style="display:inline;fill:#a0a0a0;stroke:none;stroke-width:2.06548"
       d="m 858.98536,830.91459 c -5.5097,-0.9245 -11.3189,-2.1802 -12.9092,-2.7905 -2.3712,-0.9099 -2.8915,-10.3662 -2.8915,-52.55783 v -51.4483 l 281.42144,-1.42284 c 154.7817,-0.78257 329.7311,-1.12899 388.7764,-0.76983 l 107.3551,0.653 3.4551,14.86811 c 1.9003,8.17746 5.1035,26.66215 7.1182,41.07708 3.5177,25.16671 3.5162,26.31651 -0.035,28.91331 -8.2437,6.028 -48.0169,12.2957 -94.5232,14.8956 l -26.2509,1.4676 -3.6969,-8.2686 c -14.5223,-32.48151 -72.0492,-52.66659 -132.3103,-46.42522 -51.9339,5.37891 -86.4103,22.65305 -100.8748,50.54262 -4.8554,9.362 -6.7558,11.321 -10.1103,10.4229 -31.8591,-8.5298 -73.4899,-9.6518 -87.4584,-2.3571 -3.7976,1.9832 -7.1687,3.305 -7.4916,2.9372 -0.3228,-0.3678 -2.4722,-4.4094 -4.7763,-8.9814 -9.7224,-19.2921 -34.3415,-35.55926 -67.5773,-44.65213 -22.5104,-6.15855 -77.5463,-6.74278 -98.11024,-1.04146 -30.9651,8.58505 -56.5169,27.78069 -62.1916,46.72119 -1.5544,5.1884 -3.9204,8.3911 -6.7619,9.1538 -6.4023,1.7184 -58.4758,1.0227 -70.1566,-0.9372 z"
       id="path3578" />
    <path
       style="display:inline;fill:#a0a0a0;stroke:none;stroke-width:2.06548"
       d="m 1643.7833,782.99351 c -0.7363,-5.96407 -3.7289,-23.51646 -6.6497,-39.00533 l -5.3109,-28.16158 64.3417,-75.62867 c 35.3879,-41.59576 65.1116,-75.62867 66.0526,-75.62867 0.9411,0 2.222,3.02076 2.8465,6.7128 2.6694,15.78001 16.5021,164.75629 15.4002,165.8582 -0.6664,0.66642 -5.5075,-2.06738 -10.7579,-6.07511 -5.2505,-4.00774 -13.0098,-8.24872 -17.2431,-9.42441 -26.7005,-7.41537 -46.3762,3.77088 -83.6243,47.54311 -11.5384,13.55939 -21.5948,24.65344 -22.3476,24.65344 -0.7527,0 -1.9711,-4.87972 -2.7075,-10.84378 z"
       id="path3582" />
    <path
       style="display:inline;fill:#a0a0a0;stroke:none;stroke-width:2.06548"
       d="m 1654.1097,1031.8836 c 1.2992,-63.36711 -1.1893,-156.91571 -5.3352,-200.54661 l -1.8339,-19.3009 24.3145,-28.20506 c 13.373,-15.5128 28.1385,-31.65034 32.8121,-35.86118 20.8471,-18.78301 40.3062,-21.58748 57.9609,-8.35337 7.1967,5.3947 16.7626,22.97277 16.7978,30.86704 0.011,2.49162 1.6986,5.74474 3.7501,7.22917 3.2209,2.33057 4.7893,13.38026 11.4915,80.9533 l 7.7614,78.2544 -5.9699,6.4301 c -3.2835,3.5367 -21.6595,24.0902 -40.8357,45.6744 -47.7821,53.78261 -98.4546,108.43751 -100.5361,108.43751 -0.9472,0 -1.117,-29.5105 -0.3775,-65.5788 z"
       id="path3584" />
    <path
       style="display:inline;fill:#a0a0a0;stroke:none;stroke-width:2.06548"
       d="m 1702.7272,522.16757 c -29.9372,-8.34252 -54.7362,-15.47317 -55.109,-15.8459 -0.9056,-0.90573 14.8237,-75.95957 16.2098,-77.34559 0.9417,-0.9417 110.6952,33.64973 112.658,35.50686 0.6183,0.58509 -7.3975,48.6588 -11.2642,67.55505 -0.7341,3.58731 -2.4336,5.60964 -4.6128,5.48892 -1.8979,-0.10511 -27.9447,-7.01683 -57.8818,-15.35934 z"
       id="path3586" />
    <path
       style="display:inline;fill:#a0a0a0;stroke:none;stroke-width:2.06548"
       d="m 825.79056,509.31774 c 0.5741,-13.34815 1.5242,-29.05104 2.1112,-34.8953 l 1.0674,-10.62595 22.0825,-1.33416 c 12.1454,-0.73379 176.83844,-8.25019 365.98454,-16.70309 189.1461,-8.4529 363.7686,-16.35517 388.0499,-17.56059 24.2815,-1.20543 44.6105,-1.72927 45.1757,-1.16407 0.5652,0.56519 -2.5163,18.19582 -6.8477,39.17918 l -7.8752,38.15157 -16.6457,1.19283 c -9.1549,0.65605 -84.9611,3.53075 -168.458,6.38821 -83.4971,2.85747 -255.9128,8.89087 -383.1462,13.40755 -127.23334,4.51669 -233.85534,8.21689 -236.93784,8.22267 l -5.6043,0.01 z"
       id="path3588" />
    <path
       style="display:inline;fill:#f2f2f2;stroke:none;stroke-width:2.06548"
       d="m 855.92186,709.43117 c 0.3787,-0.98284 44.3047,-39.92948 97.6133,-86.54807 l 96.92474,-84.76108 21.8402,-1.25367 c 12.0121,-0.68951 144.5893,-5.51764 294.616,-10.72919 l 272.7758,-9.47554 57.7006,15.78273 c 31.7353,8.68051 58.4871,16.00357 59.4482,16.27347 0.9612,0.2699 -28.6872,36.24534 -65.8853,79.94543 l -67.6331,79.4547 -149.957,1.25361 c -238.0045,1.98969 -618.20154,2.02516 -617.44344,0.0576 z m 713.62554,-34.51902 c 3.3573,-8.749 9.4572,-8.51966 -295.4794,-11.1091 -306.72704,-2.60465 -300.02924,-2.74348 -294.56454,6.10556 1.6697,2.70382 32.09494,3.37953 239.00444,5.30808 370.1039,3.44961 349.5921,3.4674 351.0395,-0.30454 z m -126.8428,-49.72956 c 133.5886,-1.13146 161.008,-1.84459 162.9954,-4.23926 1.8326,-2.20813 1.7055,-3.56282 -0.5454,-5.81371 -2.531,-2.53108 -42.3741,-2.60199 -289.6765,-0.5156 -210.2028,1.7734 -287.6128,3.05602 -290.0048,4.80518 -2.0541,1.50194 -2.7347,3.7634 -1.8368,6.10318 1.36,3.54419 7.4053,3.65438 129.9443,2.36879 70.6849,-0.74157 200.7906,-1.96044 289.1238,-2.70858 z m 20.6759,-37.68857 c 122.6639,-1.0748 173.6903,-2.18648 175.3235,-3.81965 1.267,-1.26699 1.689,-3.90526 0.9378,-5.86282 -1.473,-3.83874 -5.4113,-3.83403 -429.5076,0.5125 -138.3009,1.41743 -136.1585,1.25537 -132.7855,10.04502 1.0677,2.78249 13.4147,3.00071 107.1093,1.89301 58.2464,-0.6886 183.7615,-1.93423 278.9225,-2.76806 z"
       id="path3592" />
    <path
       style="display:inline;fill:#e9afaf;stroke:none;stroke-width:2.06548"
       d="m 1221.1681,981.57679 c -8.8913,-11.2217 -18.5903,-25.634 -18.5903,-27.624 0,-1.5007 34.486,-1.3026 43.8915,0.252 4.26,0.7041 7.7455,2.1391 7.7455,3.1888 0,1.8692 -12.5031,20.5927 -20.2868,30.3796 l -3.9326,4.9448 z"
       id="path3570" />
    <path
       style="display:inline;fill:#ff5555;stroke:none;stroke-width:2.06548"
       d="m 1213.4215,1058.2411 c -3.692,-2.2511 -6.7127,-4.8328 -6.7127,-5.737 0,-0.9043 5.5101,-7.0967 12.2444,-13.7609 l 12.2446,-12.1168 13.5519,11.8979 c 7.4535,6.5439 12.9823,12.8194 12.2864,13.9456 -2.529,4.0922 -18.536,9.7897 -27.607,9.8264 -5.6877,0.023 -11.8999,-1.5508 -16.0076,-4.0552 z"
       id="path3572" />
  </g>
</svg>
