<?xml version="1.0" encoding="UTF-8" standalone="no"?>
<svg
   xmlns:dc="http://purl.org/dc/elements/1.1/"
   xmlns:cc="http://creativecommons.org/ns#"
   xmlns:rdf="http://www.w3.org/1999/02/22-rdf-syntax-ns#"
   xmlns:svg="http://www.w3.org/2000/svg"
   xmlns="http://www.w3.org/2000/svg"
   xmlns:sodipodi="http://sodipodi.sourceforge.net/DTD/sodipodi-0.dtd"
   xmlns:inkscape="http://www.inkscape.org/namespaces/inkscape"
   version="1.1"
   id="svg1443"
   width="1200"
   height="1200"
   viewBox="0 0 1200 1200"
   sodipodi:docname="Recommendation2.svg"
   inkscape:version="1.0.2-2 (e86c870879, 2021-01-15)">
  <metadata
     id="metadata1449">
    <rdf:RDF>
      <cc:Work
         rdf:about="">
        <dc:format>image/svg+xml</dc:format>
        <dc:type
           rdf:resource="http://purl.org/dc/dcmitype/StillImage" />
        <dc:title></dc:title>
      </cc:Work>
    </rdf:RDF>
  </metadata>
  <defs
     id="defs1447" />
  <sodipodi:namedview
     pagecolor="#ffffff"
     bordercolor="#666666"
     borderopacity="1"
     objecttolerance="10"
     gridtolerance="10"
     guidetolerance="10"
     inkscape:pageopacity="0"
     inkscape:pageshadow="2"
     inkscape:window-width="1920"
     inkscape:window-height="986"
     id="namedview1445"
     showgrid="false"
     inkscape:zoom="0.58"
     inkscape:cx="361.66136"
     inkscape:cy="655.99411"
     inkscape:window-x="-11"
     inkscape:window-y="-11"
     inkscape:window-maximized="1"
     inkscape:current-layer="layer4"
     inkscape:document-rotation="0"
     fit-margin-top="0"
     fit-margin-left="0"
     fit-margin-right="0"
     fit-margin-bottom="0" />
  <g
     inkscape:groupmode="layer"
     id="layer4"
     inkscape:label="Color"
     transform="translate(-616.26001,-439.28476)">
    <path
       style="display:inline;fill:none;stroke:#000000;stroke-width:17.8729;stroke-linecap:butt;stroke-linejoin:miter;stroke-miterlimit:4;stroke-dasharray:none;stroke-opacity:1"
       d="m 804.78582,736.55297 v 705.38433 c 5.9911,59.9106 636.30848,121.8633 822.15398,-78.6408 l -9.5322,-648.19103 c 0,0 -400.3533,-243.07159 -812.62178,21.4475 z"
       id="path1456"
       sodipodi:nodetypes="ccccc" />
    <path
       style="display:inline;fill:none;stroke:#000000;stroke-width:17.8729;stroke-linecap:butt;stroke-linejoin:miter;stroke-miterlimit:4;stroke-dasharray:none;stroke-opacity:1"
       d="m 804.78582,736.55297 c 40.5119,147.7494 762.57758,61.9595 812.62178,-21.4475"
       id="path1458"
       sodipodi:nodetypes="cc" />
    <path
       style="display:inline;fill:none;stroke:#000000;stroke-width:17.8729;stroke-linecap:round;stroke-linejoin:miter;stroke-miterlimit:4;stroke-dasharray:none;stroke-opacity:1"
       d="m 1243.2679,941.49577 133.4511,-76.2578"
       id="path2021" />
    <path
       style="display:inline;fill:none;stroke:#000000;stroke-width:17.8729;stroke-linecap:round;stroke-linejoin:miter;stroke-miterlimit:4;stroke-dasharray:none;stroke-opacity:1"
       d="m 990.66412,881.91937 95.32218,52.4272"
       id="path2023" />
    <path
       style="display:inline;fill:none;stroke:#000000;stroke-width:9.53222;stroke-linecap:butt;stroke-linejoin:miter;stroke-miterlimit:4;stroke-dasharray:none;stroke-opacity:1"
       d="m 928.70472,839.02437 -4.7661,171.58003"
       id="path2025" />
    <path
       style="display:inline;fill:none;stroke:#000000;stroke-width:9.53222;stroke-linecap:butt;stroke-linejoin:miter;stroke-miterlimit:4;stroke-dasharray:none;stroke-opacity:1"
       d="m 881.04362,831.87517 -2.3831,145.3664"
       id="path2027" />
    <path
       style="display:inline;fill:none;stroke:#000000;stroke-width:9.53222;stroke-linecap:butt;stroke-linejoin:miter;stroke-miterlimit:4;stroke-dasharray:none;stroke-opacity:1"
       d="m 854.83002,827.10907 v 121.5358"
       id="path2029" />
    <path
       style="display:inline;fill:none;stroke:#000000;stroke-width:17.8729;stroke-linecap:round;stroke-linejoin:miter;stroke-miterlimit:4;stroke-dasharray:none;stroke-opacity:1"
       d="m 1007.3455,1267.9743 c 21.4475,90.5561 119.1527,57.1933 128.685,-7.1492"
       id="path2031" />
    <path
       style="display:inline;fill:none;stroke:#000000;stroke-width:17.8729;stroke-linecap:round;stroke-linejoin:miter;stroke-miterlimit:4;stroke-dasharray:none;stroke-opacity:1"
       d="m 1269.4816,1227.4624 c 59.5763,71.4916 -133.4511,131.068 -133.4511,33.3627"
       id="path2033"
       sodipodi:nodetypes="cc" />
    <ellipse
       style="display:inline;fill:#ffffff;fill-opacity:0;stroke:#000000;stroke-width:17.8729;stroke-linecap:round;stroke-miterlimit:4;stroke-dasharray:none"
       id="path2035"
       cx="1027.6014"
       cy="1042.7755"
       rx="53.61874"
       ry="58.38485" />
    <ellipse
       style="display:inline;fill:#ffffff;fill-opacity:0;stroke:#000000;stroke-width:16.5137;stroke-linecap:round;stroke-miterlimit:4;stroke-dasharray:none"
       id="path2035-3"
       cx="1324.2919"
       cy="1055.8823"
       rx="47.149181"
       ry="56.6814" />
    <path
       style="display:inline;fill:none;stroke:#000000;stroke-width:9.53222;stroke-linecap:butt;stroke-linejoin:miter;stroke-miterlimit:4;stroke-dasharray:none;stroke-opacity:1"
       d="m 1512.5532,855.70577 c 59.5764,57.1933 45.278,135.8341 7.1491,138.2172 -38.1288,2.383 9.5323,-102.4714 -7.1491,-138.2172 z"
       id="path2057" />
    <path
       style="display:inline;fill:none;stroke:#000000;stroke-width:17.8729;stroke-linecap:round;stroke-linejoin:miter;stroke-miterlimit:4;stroke-dasharray:none;stroke-opacity:1"
       d="m 841.40562,710.57687 c 0,0 -45.2928,-25.7346 -58.6748,-20.5877 -13.382,5.1469 -56.6161,62.7924 -45.2929,80.2919 11.3232,17.4995 68.9687,21.6171 65.8805,45.293"
       id="path2067" />
    <path
       style="display:inline;fill:none;stroke:#000000;stroke-width:17.8729;stroke-linecap:round;stroke-linejoin:miter;stroke-miterlimit:4;stroke-dasharray:none;stroke-opacity:1"
       d="m 1577.415,815.57407 -4.1174,-46.3223 c 0,0 71.0274,-81.3213 101.909,-60.7338"
       id="path2069" />
    <path
       style="display:inline;fill:none;stroke:#000000;stroke-width:17.8729;stroke-linecap:round;stroke-linejoin:miter;stroke-miterlimit:4;stroke-dasharray:none;stroke-opacity:1"
       d="m 1675.2066,708.51797 c 0,0 -52.4986,59.7044 -41.1754,100.8798"
       id="path2071" />
    <path
       style="fill:#cccccc;stroke:none;stroke-width:1.02938"
       d="m 1099.7388,1491.0637 c -104.49258,-2.6295 -197.56898,-14.4258 -251.68428,-31.8977 -13.3275,-4.3031 -27.0917,-10.8066 -31.4117,-14.842 l -3.0727,-2.8704 V 1105.258 c 0,-184.90763 0.2382,-336.19553 0.5292,-336.19553 0.2911,0 3.1862,2.1642 6.4336,4.8094 30.6962,25.0036 87.2997,40.9845 170.6059,48.1674 45.44258,3.9181 131.54738,4.6931 183.23028,1.6492 109.3457,-6.4401 207.5326,-19.3391 294.4038,-38.6763 35.4144,-7.8831 76.5248,-19.6192 97.1976,-27.7479 3.6366,-1.43 6.8225,-2.3893 7.0799,-2.1319 0.2572,0.2574 -1.6967,2.8754 -4.3421,5.8177 l -4.8099,5.3499 0.6192,6.7855 c 4.4962,49.2662 4.1111,46.5999 7.104,49.1742 4.7544,4.0896 11.8415,2.369 14.038,-3.408 0.6246,-1.6426 0.2715,-9.9728 -1.0282,-24.2612 l -1.9792,-21.7595 5.7427,-6.541 c 5.83,-6.6405 19.671,-19.4444 20.2406,-18.724 0.1714,0.2168 2.3079,138.0916 4.7481,306.38843 4.357,300.5169 4.4015,306.0332 2.4844,308.1769 -1.0737,1.2005 -7.0475,6.5802 -13.2753,11.9551 -76.853,66.3273 -217.2455,106.7203 -401.4597,115.5057 -23.2475,1.1087 -81.9535,1.9607 -101.3942,1.4716 z m -11.8379,-162.3645 c 15.8742,-5.1826 33.2145,-17.9283 42.2611,-31.0636 l 3.9848,-5.7857 2.0797,2.9007 c 7.7297,10.7803 18.0791,18.1018 31.9663,22.6135 16.7397,5.4383 43.9029,4.2374 64.8511,-2.8673 36.5232,-12.3871 59.7483,-38.4556 56.6137,-63.5444 -1.8917,-15.1404 -12.2712,-32.0491 -19.6736,-32.0491 -4.73,0 -6.4433,0.8804 -8.1554,4.191 -2.1947,4.2442 -1.8833,6.3023 1.7021,11.2519 8.8491,12.2158 10.3497,21.9611 5.0231,32.6207 -10.0297,20.0711 -42.1555,35.515 -74.1117,35.6276 -17.7278,0.063 -28.4289,-3.3159 -37.767,-11.9235 -7.3067,-6.7352 -11.6435,-17.5211 -11.6435,-28.9586 0,-11.9042 -16.1037,-13.5506 -18.061,-1.8466 -3.8051,22.7532 -21.3816,43.5112 -43.3393,51.1839 -30.2526,10.571 -55.8077,-5.0159 -66.1828,-40.3672 -3.0748,-10.4761 -8.9998,-14.4241 -15.1658,-10.1053 -3.84478,2.693 -4.39758,6.4405 -2.1989,14.9058 7.1987,27.7142 26.6878,49.2364 49.8791,55.0821 9.5072,2.3965 27.6092,1.5062 37.938,-1.8659 z m 245.0615,-208.7031 c 10.36,-1.8922 18.5888,-6.5035 27.2105,-15.2481 4.2462,-4.3066 8.9593,-10.1457 10.4735,-12.9755 18.7701,-35.0766 6.6842,-80.6298 -25.447,-95.91293 -25.7457,-12.2458 -55.1328,-0.3583 -68.9378,27.88643 -5.3071,10.8583 -7.0819,18.8777 -7.0819,31.9999 0,13.4331 1.7791,21.1915 7.5536,32.9403 11.3584,23.1099 33.5304,35.456 56.2291,31.3099 z m -289.7361,-12.0793 c 39.257,-10.8856 58.6651,-59.0581 39.2671,-97.4638 -10.6219,-21.02983 -31.5499,-34.55403 -53.7406,-34.72833 -10.4373,-0.082 -17.8131,1.4533 -26.2908,5.4725 -16.77948,7.9551 -29.80498,23.98303 -35.14018,43.24023 -2.8298,10.2148 -2.5937,28.1049 0.5013,37.9735 7.3527,23.4446 22.5948,39.2167 43.90338,45.4301 8.418,2.4545 22.7964,2.4892 31.4998,0.076 z m -114.36518,-99.0744 c 0,-2.5014 3.9115,-145.07173 4.3827,-159.74533 l 0.3223,-10.0365 h -4.926 -4.9259 l -0.018,4.3749 c -0.012,2.4062 -0.9282,35.6424 -2.0412,73.8583 -1.113,38.2159 -2.0315,74.9262 -2.0412,81.5787 l -0.018,12.09523 h 4.6322 c 3.9944,0 4.6323,-0.2927 4.6323,-2.1253 z m 600.55698,-12.34143 c 24.2172,-9.0608 34.5644,-45.7698 23.7136,-84.1284 -5.1081,-18.0578 -20.2533,-43.6618 -33.2611,-56.23 l -4.1611,-4.0205 -3.7223,2.8392 c -2.512,1.9161 -3.5177,3.3725 -3.093,4.4792 0.3462,0.9021 1.1575,5.0374 1.8031,9.1897 1.5264,9.8185 0.1012,25.224 -5.3406,57.7227 -6.2919,37.5761 -7.0121,51.5654 -3.1641,61.4537 3.8485,9.8893 14.7375,13.36673 27.2255,8.6944 z m -645.49498,-48.0684 c 0.3611,-15.7109 0.9602,-48.3682 1.3312,-72.5715 l 0.6747,-44.0061 h -4.6357 -4.6356 l -0.6476,16.7275 c -0.3562,9.2 -0.9542,41.8573 -1.3289,72.5715 l -0.6815,55.844 h 4.6334 4.6334 z m 429.28598,-36.4015 c 36.8702,-21.0118 68.3106,-39.548 69.8676,-41.1917 3.5401,-3.7374 3.5894,-7.0434 0.1658,-11.1121 -1.9823,-2.3559 -3.5332,-3.1672 -6.0546,-3.1672 -2.5704,0 -19.7794,9.3508 -71.1933,38.6835 -37.2921,21.2761 -68.6143,39.6246 -69.6051,40.7748 -4.4606,5.1779 -0.3172,14.2157 6.5174,14.2157 2.4049,0 20.9332,-10.0686 70.3022,-38.203 z m -453.56598,-24.3888 0.2656,-61.0478 -4.8977,0.3141 -4.8978,0.3141 -0.2672,59.7043 c -0.1469,32.8373 -0.036,60.3101 0.248,61.0506 0.3413,0.8922 1.9943,1.2394 4.8993,1.0294 l 4.3844,-0.317 z m 232.42208,52.8594 c 3.0419,-3.0419 3.3843,-8.5815 0.7252,-11.7324 -2.7777,-3.2915 -99.08418,-55.7391 -102.35038,-55.7391 -3.6588,0 -7.8981,3.8222 -8.6618,7.8099 -0.4646,2.4254 -0.038,3.8402 1.8025,5.9771 3.7066,4.3035 98.34948,56.1459 102.56548,56.182 2.2565,0.019 4.2383,-0.8168 5.919,-2.4975 z"
       id="path2074" />
    <path
       style="fill:none;stroke:#000000;stroke-width:1.19153px;stroke-linecap:butt;stroke-linejoin:miter;stroke-opacity:1"
       d="M 1347.9985,789.60857 1448.8782,519.9101 c 37.7191,-19.51662 56.8283,-8.01697 69.9981,13.38198 l -77.2039,239.84639 z"
       id="path2063"
       sodipodi:nodetypes="ccccc" />
    <path
       style="fill:#d18757;fill-opacity:1;stroke:#000000;stroke-width:1.02948;stroke-miterlimit:4;stroke-dasharray:none;stroke-opacity:1"
       d="m 1378.8302,709.21017 c 16.3827,-43.796 38.9211,-104.14048 50.0855,-134.0987 l 20.2988,-54.46949 7.2058,-3.3227 c 15.234,-7.02475 30.4108,-8.41171 40.9639,-3.74356 5.5686,2.46324 15.9719,11.91008 18.7051,16.98532 l 1.8285,3.39522 -38.252,118.82851 c -21.0385,65.3557 -38.5813,119.113 -38.9838,119.4607 -0.4025,0.3477 -19.9556,3.9776 -43.4513,8.0666 -23.4957,4.089 -43.9497,7.6804 -45.4533,7.9809 -2.6565,0.5309 -1.8914,-1.7056 27.0528,-79.0828 z"
       id="path2111" />
    <path
       style="fill:#a0a0a0;stroke:none;stroke-width:1.02938"
       d="m 1059.0782,807.48347 c -74.90418,-1.3894 -141.73588,-10.6225 -184.41418,-25.4779 -27.6506,-9.6245 -49.0484,-23.7624 -56.7769,-37.5133 l -2.2671,-4.0339 7.9822,-4.9758 c 27.7853,-17.3208 73.375,-40.8769 104.7442,-54.1215 125.00698,-52.7795 255.23188,-70.03756 394.21378,-52.2432 27.1246,3.4729 76.1858,12.492 78.1384,14.3646 0.4991,0.4785 -11.0329,32.7267 -26.0767,72.9219 l -26.9711,72.0641 -3.7755,0.6013 c -33.747,5.3754 -110.2124,12.9344 -161.7859,15.9933 -22.2768,1.3213 -85.4157,3.1467 -99.3355,2.8718 -5.6615,-0.112 -16.3157,-0.3149 -23.6757,-0.4514 z"
       id="path2113" />
    <path
       style="fill:#a0a0a0;stroke:none;stroke-width:1.02938"
       d="m 1442.8452,771.37857 c 0.2438,-0.4246 3.7787,-11.1945 7.8554,-23.9331 4.0767,-12.7386 11.7911,-36.6913 17.1431,-53.2282 l 9.731,-30.067 14.1279,4.9953 c 33.9557,12.0054 60.1307,22.8653 89.5305,37.1451 11.4647,5.5686 20.845,10.6308 20.845,11.2492 0,0.6183 -3.2937,3.2551 -7.3193,5.8591 -22.7961,14.7467 -69.4328,30.5118 -130.4389,44.0936 -23.1292,5.1492 -22.092,4.9615 -21.4747,3.886 z"
       id="path2115" />
  </g>
</svg>
