<?xml version="1.0" encoding="UTF-8" standalone="no"?>
<svg
   xmlns:dc="http://purl.org/dc/elements/1.1/"
   xmlns:cc="http://creativecommons.org/ns#"
   xmlns:rdf="http://www.w3.org/1999/02/22-rdf-syntax-ns#"
   xmlns:svg="http://www.w3.org/2000/svg"
   xmlns="http://www.w3.org/2000/svg"
   xmlns:sodipodi="http://sodipodi.sourceforge.net/DTD/sodipodi-0.dtd"
   xmlns:inkscape="http://www.inkscape.org/namespaces/inkscape"
   version="1.1"
   id="svg4213"
   width="1200"
   height="1200"
   viewBox="0 0 1200 1200"
   sodipodi:docname="Search2.svg"
   inkscape:version="1.0.2-2 (e86c870879, 2021-01-15)">
  <metadata
     id="metadata4219">
    <rdf:RDF>
      <cc:Work
         rdf:about="">
        <dc:format>image/svg+xml</dc:format>
        <dc:type
           rdf:resource="http://purl.org/dc/dcmitype/StillImage" />
        <dc:title></dc:title>
      </cc:Work>
    </rdf:RDF>
  </metadata>
  <defs
     id="defs4217" />
  <sodipodi:namedview
     pagecolor="#ffffff"
     bordercolor="#666666"
     borderopacity="1"
     objecttolerance="10"
     gridtolerance="10"
     guidetolerance="10"
     inkscape:pageopacity="0"
     inkscape:pageshadow="2"
     inkscape:window-width="1920"
     inkscape:window-height="986"
     id="namedview4215"
     showgrid="false"
     inkscape:zoom="0.55981979"
     inkscape:cx="364.93437"
     inkscape:cy="582.82169"
     inkscape:window-x="-11"
     inkscape:window-y="-11"
     inkscape:window-maximized="1"
     inkscape:current-layer="layer11"
     fit-margin-top="0"
     fit-margin-bottom="0"
     fit-margin-left="0"
     fit-margin-right="0"
     viewbox-x="0" />
  <g
     inkscape:groupmode="layer"
     id="layer11"
     inkscape:label="Trace"
     transform="translate(-963.22462,-375.35946)">
    <ellipse
       style="fill:#ffdd55;fill-opacity:0;stroke:#000000;stroke-width:13.5116;stroke-linecap:round;stroke-linejoin:round"
       id="path4226"
       cx="1559.0504"
       cy="792.01111"
       rx="297.68329"
       ry="228.68092" />
    <ellipse
       style="fill:#ffdd55;fill-opacity:0;stroke:#000000;stroke-width:13.5116;stroke-linecap:round;stroke-linejoin:round"
       id="path4791"
       cx="1540.0306"
       cy="908.7843"
       rx="127.38899"
       ry="72.983276" />
    <ellipse
       style="fill:#ff5353;fill-opacity:1;stroke:#ff5353;stroke-width:13.5116;stroke-linecap:round;stroke-linejoin:round;stroke-opacity:1"
       id="path4793"
       cx="1361.7743"
       cy="874.28314"
       rx="26.981695"
       ry="14.596654" />
    <ellipse
       style="fill:#ff5353;fill-opacity:1;stroke:#ff5353;stroke-width:13.5116;stroke-linecap:round;stroke-linejoin:round;stroke-opacity:1"
       id="path4795"
       cx="1739.9604"
       cy="864.99438"
       rx="32.731892"
       ry="25.654728" />
    <ellipse
       style="fill:#ffdd55;fill-opacity:0;stroke:#000000;stroke-width:13.5116;stroke-linecap:round;stroke-linejoin:round"
       id="path4797"
       cx="1499.337"
       cy="1132.1575"
       rx="74.310242"
       ry="73.425598" />
    <path
       style="fill:none;stroke:#000000;stroke-width:20.2675;stroke-linecap:round;stroke-linejoin:miter;stroke-miterlimit:4;stroke-dasharray:none;stroke-opacity:1"
       d="m 1556.8386,1185.2362 76.0796,69.0023"
       id="path4799" />
    <path
       style="fill:none;stroke:#000000;stroke-width:27.0233;stroke-linecap:round;stroke-linejoin:miter;stroke-miterlimit:4;stroke-dasharray:none;stroke-opacity:1"
       d="m 1349.8317,790.68417 105.2728,-14.15434"
       id="path4801" />
    <path
       style="fill:none;stroke:#000000;stroke-width:27.0233;stroke-linecap:round;stroke-linejoin:miter;stroke-miterlimit:4;stroke-dasharray:none;stroke-opacity:1"
       d="m 1642.6493,789.79952 99.965,-3.53858"
       id="path4803" />
    <path
       style="fill:none;stroke:#000000;stroke-width:27.0233;stroke-linecap:round;stroke-linejoin:miter;stroke-miterlimit:4;stroke-dasharray:none;stroke-opacity:1"
       d="m 1496.6828,889.76449 3.5385,30.9626"
       id="path4805" />
    <path
       style="fill:none;stroke:#000000;stroke-width:27.0233;stroke-linecap:round;stroke-linejoin:miter;stroke-miterlimit:4;stroke-dasharray:none;stroke-opacity:1"
       d="m 1584.2627,887.55288 -1.7694,33.61654"
       id="path4805-1"
       sodipodi:nodetypes="cc" />
    <path
       style="fill:none;stroke:#000000;stroke-width:13.5116;stroke-linecap:butt;stroke-linejoin:miter;stroke-miterlimit:4;stroke-dasharray:none;stroke-opacity:1"
       d="m 1379.9095,978.22906 c -61.0404,105.27284 -28.3086,285.74054 12.385,360.93544 36.9684,68.311 277.7789,44.2323 314.0492,0 36.2706,-44.2323 96.357,-253.4803 43.3477,-367.12796"
       id="path4827"
       sodipodi:nodetypes="cssc" />
    <path
       style="fill:none;stroke:#000000;stroke-width:13.5116;stroke-linecap:butt;stroke-linejoin:miter;stroke-miterlimit:4;stroke-dasharray:none;stroke-opacity:1"
       d="m 1434.7576,1366.5886 c -11.5005,98.1957 107.9268,184.891 109.696,12.385"
       id="path4829" />
    <path
       style="fill:none;stroke:#000000;stroke-width:13.5116;stroke-linecap:butt;stroke-linejoin:miter;stroke-miterlimit:4;stroke-dasharray:none;stroke-opacity:1"
       d="m 1598.4171,1376.3196 c -4.4233,67.2332 127.3889,199.0453 86.6951,-24.77"
       id="path4831" />
    <path
       style="fill:none;stroke:#000000;stroke-width:13.5116;stroke-linecap:butt;stroke-linejoin:miter;stroke-miterlimit:4;stroke-dasharray:none;stroke-opacity:1"
       d="m 1354.2549,1058.7318 c -138.0048,146.8512 -69.0024,285.7406 2.6539,187.5449"
       id="path4833"
       sodipodi:nodetypes="cc" />
    <path
       style="fill:none;stroke:#000000;stroke-width:13.5116;stroke-linecap:butt;stroke-linejoin:miter;stroke-miterlimit:4;stroke-dasharray:none;stroke-opacity:1"
       d="m 1767.3843,1022.4614 c 127.389,123.8504 121.1965,248.5854 -2.6539,125.6196"
       id="path4837" />
    <path
       style="fill:none;stroke:#000000;stroke-width:6.75582;stroke-linecap:butt;stroke-linejoin:miter;stroke-miterlimit:4;stroke-dasharray:none;stroke-opacity:1"
       d="m 1415.2954,1000.3452 c -46.8861,130.9276 -22.1161,346.7812 128.2736,336.1654 150.3897,-10.6158 215.8535,-161.8902 158.3516,-336.1654"
       id="path4839" />
    <path
       style="fill:none;stroke:#000000;stroke-width:13.5116;stroke-linecap:round;stroke-linejoin:miter;stroke-miterlimit:4;stroke-dasharray:none;stroke-opacity:1"
       d="m 1280.8293,703.10424 c -33.6166,-175.15986 -6.1925,-200.81458 111.4652,-104.3882"
       id="path4841"
       sodipodi:nodetypes="cc" />
    <path
       style="fill:none;stroke:#000000;stroke-width:13.5116;stroke-linecap:butt;stroke-linejoin:miter;stroke-miterlimit:4;stroke-dasharray:none;stroke-opacity:1"
       d="m 1656.8036,573.94597 c 118.5426,-100.84961 213.1996,-155.69766 167.198,111.46536"
       id="path4843" />
    <path
       style="fill:none;stroke:#000000;stroke-width:13.5116;stroke-linecap:butt;stroke-linejoin:miter;stroke-miterlimit:4;stroke-dasharray:none;stroke-opacity:1"
       d="m 1271.0982,1227.6992 c 38.0398,-0.8847 56.6174,42.463 56.6174,42.463"
       id="path4845" />
    <path
       style="fill:none;stroke:#000000;stroke-width:13.5116;stroke-linecap:butt;stroke-linejoin:miter;stroke-miterlimit:4;stroke-dasharray:none;stroke-opacity:1"
       d="m 1453.3351,1445.322 c 29.1933,-16.8082 76.0795,3.5387 76.0795,3.5387"
       id="path4847" />
    <path
       style="fill:none;stroke:#000000;stroke-width:13.5116;stroke-linecap:butt;stroke-linejoin:miter;stroke-miterlimit:4;stroke-dasharray:none;stroke-opacity:1"
       d="m 1624.9564,1443.5528 c 62.8098,-1.7694 65.4637,5.3079 65.4637,5.3079"
       id="path4849" />
    <path
       style="fill:none;stroke:#000000;stroke-width:13.5116;stroke-linecap:butt;stroke-linejoin:miter;stroke-miterlimit:4;stroke-dasharray:none;stroke-opacity:1"
       d="m 1821.3477,1188.7748 c 7.9618,-23.0008 33.6165,-29.1934 33.6165,-29.1934"
       id="path4851" />
    <path
       style="fill:#000000;stroke:#000000;stroke-width:0.884645;stroke-opacity:1"
       d="m 1301.33,1270.3251 c -7.754,-3.5418 -14.6488,-14.2337 -17.5855,-27.2704 -0.7889,-3.5019 -1.4344,-6.5593 -1.4344,-6.7942 0,-0.8513 5.347,1.1357 10.6214,3.9469 6.9583,3.7088 16.4444,13.0061 22.083,21.6433 2.4479,3.7499 4.4507,7.1749 4.4507,7.6111 0,2.7633 -12.6565,3.3658 -18.1352,0.8633 z"
       id="path4853" />
    <path
       style="fill:#000000;stroke:#000000;stroke-width:0.884645;stroke-opacity:1"
       d="m 1833.2232,1190.0622 c -2.3112,-0.7107 -4.2021,-1.6344 -4.2021,-2.0527 0,-0.4183 1.7173,-3.0934 3.8163,-5.9446 3.8521,-5.2327 10.7471,-10.6544 16.6344,-13.08 l 3.1999,-1.3184 0.4975,4.6072 c 0.8921,8.2612 -0.9817,15.0944 -4.8896,17.8315 -2.4514,1.7171 -9.3972,1.6972 -15.0564,-0.043 z"
       id="path4855" />
    <path
       style="fill:#000000;stroke:#000000;stroke-width:0.884645;stroke-opacity:1"
       d="m 1494.0207,1470.1098 c -2.0353,-0.4076 -5.9188,-1.8272 -8.63,-3.1547 -9.0863,-4.4492 -22.3542,-16.8889 -20.2537,-18.9894 1.9269,-1.9268 15.7855,-2.9352 25.6047,-1.863 8.8114,0.962 28.542,5.521 31.3167,7.2359 0.9634,0.5954 0.6975,1.4825 -1.3152,4.3868 -6.7835,9.7885 -16.7102,14.3891 -26.7225,12.3844 z"
       id="path4857" />
    <path
       style="fill:#000000;stroke:#000000;stroke-width:0.884645;stroke-opacity:1"
       d="m 1660.7284,1467.9172 c -1.8185,-0.668 -5.2022,-2.4864 -7.5195,-4.041 -4.66,-3.1262 -14.3866,-12.2478 -14.3866,-13.4917 0,-1.3137 42.6056,1.0266 43.9956,2.4167 0.9164,0.9164 -3.4785,9.5207 -6.4677,12.6626 -3.3243,3.4942 -3.9507,3.7877 -7.9617,3.7301 -2.3947,-0.034 -5.8417,-0.6088 -7.6601,-1.2767 z"
       id="path4859" />
    <path
       style="fill:#ffd5d5;stroke:none;stroke-width:0.884645"
       d="m 1534.434,1013.1253 c -35.1956,-3.0768 -61.6368,-8.0963 -88.86,-16.86896 -75.4984,-24.32935 -136.2268,-74.27853 -162.0736,-133.30565 -30.7719,-70.27458 -14.2606,-146.67189 44.3792,-205.34165 45.7587,-45.78196 110.7934,-75.20979 187.9769,-85.05828 14.4715,-1.84654 55.0065,-2.57433 71.2643,-1.27953 53.6626,4.27379 101.2484,18.09643 143.2664,41.61581 54.9153,30.73859 94.1042,75.00596 110.4934,124.81211 34.8629,105.94764 -35.8311,214.92262 -167.5572,258.28956 -20.9291,6.89029 -45.9455,12.30259 -71.6562,15.50289 -10.5321,1.311 -57.7892,2.4593 -67.2332,1.6337 z m 32.2896,-26.09185 c 20.3798,-2.3964 40.0654,-7.8779 56.6666,-15.77888 14.2017,-6.75894 23.1603,-12.89818 32.2403,-22.09366 13.2934,-13.4625 18.189,-24.6348 18.0588,-41.21231 -0.085,-10.83809 -1.8305,-17.01712 -7.5516,-26.73209 -4.1107,-6.98028 -17.4549,-20.23837 -25.9884,-25.82074 -19.1463,-12.52484 -45.1228,-21.32115 -73.8679,-25.01361 -10.9744,-1.4097 -41.3915,-1.37865 -52.6365,0.0538 -54.535,6.94665 -95.2493,31.35358 -105.2823,63.11352 -4.6564,14.74035 -2.223,31.05878 6.5949,44.22459 18.9499,28.29367 60.384,46.93822 112.3994,50.57762 7.3278,0.5127 30.3532,-0.25829 39.3667,-1.31817 z m 184.8543,-91.49748 c 25.9173,-6.75063 35.6525,-32.29028 19.1377,-50.20675 -4.0803,-4.4266 -12.2225,-9.10287 -18.9845,-10.90341 -6.0477,-1.61029 -17.5362,-1.54975 -23.971,0.12634 -10.7442,2.79852 -19.998,10.04619 -24.2472,18.99076 -3.3505,7.0527 -3.292,16.16221 0.1488,23.16895 4.3091,8.77503 14.1133,16.20964 24.9521,18.92153 6.1955,1.55012 16.8117,1.50509 22.9641,-0.0974 z m -374.0296,-2.53761 c 10.2181,-3.2149 17.2117,-10.71732 17.3307,-18.59179 0.1162,-7.70647 -5.6497,-14.3282 -15.8928,-18.25089 -6.2621,-2.39815 -20.4419,-3.32127 -27.7412,-1.80596 -6.3902,1.32661 -14.7869,5.37974 -17.7997,8.592 -10.7031,11.41206 -3.6543,25.50749 15.435,30.86559 5.9548,1.67137 22.2457,1.21169 28.668,-0.80895 z m 28.1099,-96.07949 c 28.9226,-3.89612 53.3079,-7.33747 54.1895,-7.64745 0.8818,-0.30999 2.9046,-1.78584 4.4954,-3.27967 8.7474,-8.21479 3.1044,-22.66028 -8.8587,-22.6769 -7.2419,-0.009 -109.495,14.11094 -112.1602,15.48918 -5.9039,3.05301 -8.621,11.44885 -5.6982,17.60799 2.1268,4.48195 6.9085,7.59071 11.6752,7.59071 2.0738,0 27.4344,-3.18773 56.357,-7.08386 z m 294.6469,4.48041 c 24.8144,-0.91958 45.9131,-1.96185 46.8862,-2.31617 3.1857,-1.15988 7.5355,-6.00835 8.4553,-9.42481 1.5227,-5.65434 -0.8593,-11.59773 -6.0086,-14.99322 -3.0897,-2.0373 -8.6278,-2.06885 -57.2946,-0.32632 -53.0075,1.89794 -52.9394,1.89372 -55.9738,3.46283 -8.8764,4.5902 -9.5428,17.48741 -1.1964,23.1589 3.9609,2.6915 4.2851,2.69369 65.1319,0.43879 z"
       id="path4861" />
    <path
       style="fill:#ffd5d5;stroke:none;stroke-width:0.884645"
       d="m 1493.7405,1373.6173 c -44.4163,-3.9039 -76.7838,-14.983 -90.6357,-31.0238 -6.3663,-7.3724 -16.3853,-29.613 -24.7444,-54.9291 -21.7363,-65.83 -30.3154,-147.6116 -22.1435,-211.0875 0.7277,-5.6522 1.5548,-10.8738 1.838,-11.6037 0.283,-0.7298 0.6596,-2.9997 0.8366,-5.0441 0.4279,-4.9447 6.0166,-28.0998 8.9245,-36.9766 4.6476,-14.1871 14.7691,-37.5974 16.2553,-37.5974 1.4184,0 29.3148,13.9606 28.5014,14.26331 -2.0861,0.77629 -10.6038,31.22309 -14.695,52.52749 -5.1863,27.0071 -7.11,48.5263 -7.0776,79.1757 0.072,66.9172 14.9362,121.1394 43.7213,159.4768 14.6942,19.5704 33.3686,33.8801 54.7958,41.9886 27.9427,10.5741 68.2123,9.4978 105.7295,-2.8261 65.425,-21.4911 110.9025,-76.4566 125.5579,-151.753 3.7423,-19.2267 5.116,-34.2261 5.145,-56.175 0.049,-36.3826 -4.8964,-69.82 -15.8938,-107.4845 -2.202,-7.5416 -4.0575,-14.201 -4.1232,-14.79862 -0.066,-0.59764 4.6575,-3.2917 10.4961,-5.9868 5.8388,-2.6951 14.5108,-7.08272 19.2715,-9.75029 4.7607,-2.66756 8.9869,-4.85011 9.3916,-4.85011 0.4047,0 1.9348,2.68712 3.4006,5.97136 22.0184,49.33986 21.9007,135.30626 -0.3129,228.45976 -11.8365,49.6366 -31.0745,100.1761 -45.2936,118.9894 -4.3366,5.7377 -10.3027,10.1898 -20.0736,14.9793 -25.7485,12.6214 -71.3649,22.5989 -119.4273,26.1218 -14.3643,1.053 -57.1731,1.0116 -69.4445,-0.068 z"
       id="path4863" />
    <path
       style="fill:#ffd5d5;stroke:none;stroke-width:0.884645"
       d="m 1328.0701,1256.7762 c -8.1626,-13.0935 -19.8956,-24.3407 -31.1633,-29.8728 -3.8924,-1.911 -8.4963,-3.7276 -10.2308,-4.0367 -5.5268,-0.9849 -5.5084,-0.9383 -4.4638,-11.3179 3.776,-37.5182 20.9049,-77.1626 50.2389,-116.2765 7.5811,-10.1085 9.7037,-11.9348 8.7398,-7.5195 -0.2922,1.3381 -0.8672,11.3147 -1.2778,22.1704 -1.5404,40.7181 1.8546,81.0934 10.6251,126.3637 1.0401,5.3689 1.0192,5.4906 -1.5502,8.9845 -2.8447,3.8682 -7.8474,9.3377 -13.3549,14.6011 l -3.5298,3.3734 z"
       id="path4865" />
    <path
       style="fill:#ffd5d5;stroke:none;stroke-width:0.884645"
       d="m 1810.8785,1178.2697 c -6.7874,-4.4521 -22.0277,-16.7828 -30.3388,-24.5467 l -6.4607,-6.0354 1.3173,-11.0581 c 3.1812,-26.7039 4.0154,-68.9731 1.7526,-88.8048 -0.4061,-3.5589 -0.2937,-5.0981 0.3553,-4.8655 0.5219,0.1871 4.6392,4.5186 9.1492,9.6256 21.9844,24.8942 39.46,49.9137 50.9793,72.9867 4.9497,9.914 11.7353,25.9678 11.7353,27.7643 0,0.437 -1.6575,1.4577 -3.6833,2.2683 -10.0139,4.0067 -22.3285,14.3143 -26.5031,22.1835 -1.1551,2.1774 -2.3032,3.9589 -2.5514,3.9589 -0.2482,0 -2.8365,-1.5646 -5.7517,-3.4768 z"
       id="path4867" />
    <path
       style="fill:#ffd5d5;stroke:none;stroke-width:0.884645"
       d="m 1522.049,1438.9787 c -2.676,-0.9536 -9.2445,-2.7798 -14.5966,-4.0585 -8.6028,-2.0554 -11.5261,-2.3234 -25.2124,-2.3109 -13.3828,0.014 -16.2349,0.2671 -21.0411,1.8813 l -5.5598,1.8675 -2.9543,-5.8883 c -6.3936,-12.7425 -10.4843,-28.1959 -11.6622,-44.0555 l -0.6007,-8.0893 10.0721,2.4517 c 18.5098,4.5055 38.9037,6.8448 66.9106,7.675 l 19.6834,0.5836 v 4.0666 c 0,14.7581 -6.3379,48.028 -9.0923,47.728 -0.5946,-0.065 -3.2706,-0.8979 -5.9467,-1.8512 z"
       id="path4869" />
    <path
       style="fill:#ffd5d5;stroke:none;stroke-width:0.884645"
       d="m 1678.6314,1438.1767 c -2.1896,-0.4291 -14.8349,-1.0314 -28.1009,-1.3384 l -24.1199,-0.5582 -3.9346,-6.3128 c -8.1788,-13.1225 -15.2104,-30.9599 -16.781,-42.5696 l -0.6024,-4.4522 13.9897,-2.4828 c 17.4787,-3.1021 37.4564,-8.1629 50.66,-12.8333 5.572,-1.971 10.236,-3.4785 10.3645,-3.35 0.1284,0.1284 0.8325,3.9959 1.5644,8.5942 2.5567,16.0623 4.0373,34.53 4.0373,50.356 0,17.893 0.6754,16.4665 -7.0771,14.9471 z"
       id="path4871" />
    <path
       style="fill:#ffaaaa;stroke:none;stroke-width:0.884645"
       d="m 1284.5449,685.23904 c -0.6787,-2.06365 -4.8247,-28.46608 -6.5638,-41.79952 -2.798,-21.45158 -3.9265,-39.59254 -3.3295,-53.52106 1.1928,-27.83005 7.6926,-39.80905 21.6004,-39.80905 10.0419,0 27.8642,7.79046 47.5411,20.78111 12.2212,8.06853 38.3232,27.60669 38.4205,28.75904 0.02,0.24328 -4.9467,3.41974 -11.0385,7.05881 -30.3704,18.14225 -60.9672,46.18337 -80.3791,73.66512 -4.1869,5.92744 -5.5523,6.99023 -6.2511,4.86555 z"
       id="path4873" />
    <path
       style="fill:#ffaaaa;fill-opacity:1;stroke:none;stroke-width:0.884645"
       d="m 1812.3326,661.21207 c -31.1653,-36.30379 -76.4423,-65.90067 -128.6683,-84.10843 -7.2063,-2.51235 -13.104,-4.86835 -13.106,-5.23554 0,-0.92588 19.8856,-17.14104 36.5078,-29.76179 27.5114,-20.88869 53.9325,-36.52944 70.2032,-41.55904 8.5932,-2.65627 20.1249,-3.28863 25.7713,-1.4132 25.1861,8.36547 32.1503,58.52643 20.2194,145.63243 -3.2184,23.49674 -3.2824,23.88543 -3.9333,23.88543 -0.334,0 -3.4814,-3.34794 -6.9941,-7.43986 z"
       id="path4875" />
    <path
       style="fill:#ff9999;fill-opacity:1;stroke:none;stroke-width:0.884645"
       d="m 1514.5277,973.36845 c -19.1343,-2.32207 -40.2529,-8.32243 -54.4961,-15.48377 -54.0706,-27.18613 -53.8758,-71.63344 0.4301,-98.17456 16.7732,-8.19758 31.9569,-12.53899 53.927,-15.41901 12.0141,-1.57492 35.684,-1.78677 48.1678,-0.4311 59.7251,6.48582 102.0186,36.96453 97.4432,70.22235 -2.2522,16.37214 -18.6572,33.9102 -41.9137,44.80854 -15.5691,7.29588 -37.0026,12.90942 -56.9851,14.92457 -12.1881,1.2291 -34.5285,1.01468 -46.5732,-0.44702 z m 76.1431,-41.52157 c 4.5016,-3.43346 5.461,-7.56174 6.4566,-27.78151 0.9902,-20.11486 0.5446,-22.86153 -4.3829,-27.00772 -6.4556,-5.43206 -16.6188,-3.12324 -20.6611,4.69365 -1.3887,2.68548 -3.6498,37.40055 -2.7487,42.20333 0.6824,3.6377 4.3492,8.14198 7.9608,9.77919 3.7151,1.68402 9.8234,0.82228 13.3753,-1.88694 z m -81.4222,-1.36592 c 4.888,-4.73762 5.1015,-6.91881 2.6663,-27.24954 -2.3172,-19.34587 -3.2487,-22.16794 -8.2977,-25.13961 -1.5484,-0.9114 -4.4306,-1.54814 -7.0074,-1.54814 -5.4014,0 -9.4868,2.53142 -12.0264,7.45178 l -1.7914,3.47087 2.0198,18.20295 c 1.1564,10.42068 2.6052,19.45524 3.389,21.13208 0.753,1.611 2.8052,3.92609 4.5602,5.14461 2.7072,1.87957 3.9637,2.16451 8.2875,1.87926 4.3667,-0.28806 5.541,-0.76698 8.2001,-3.34426 z"
       id="path4877" />
    <path
       style="fill:#ffddc7;fill-opacity:1;stroke:none;stroke-width:0.884645"
       d="m 1511.82,1331.6418 c -39.9878,-6.7222 -72.1427,-34.5782 -91.8448,-79.5659 -25.5523,-58.3458 -29.6574,-143.7996 -10.582,-220.2769 2.355,-9.4417 8.9978,-30.5203 9.6183,-30.5203 0.205,0 3.2691,1.1463 6.8093,2.5473 25.423,10.0611 61.4854,18.3584 95.1208,21.8854 16.8932,1.7714 55.742,2.013 71.8791,0.447 35.0516,-3.4017 69.8556,-11.1492 98.7571,-21.9839 l 7.1964,-2.6977 3.2711,10.9373 c 11.512,38.4916 16.6728,71.7616 16.7294,107.8495 0.034,21.7971 -0.8397,33.1056 -3.9308,50.8671 -11.4799,65.964 -46.1628,116.4487 -97.6954,142.206 -18.1004,9.047 -39.8032,15.6069 -60.4582,18.2743 -13.1035,1.6922 -34.8986,1.707 -44.8703,0.031 z m 126.8105,-69.004 c 2.3113,-1.6189 4.6149,-5.7444 4.6149,-8.2648 0,-0.9744 -0.4814,-2.8284 -1.0699,-4.12 -0.7644,-1.6776 -57.5198,-54.0652 -76.2565,-70.388 -0.4626,-0.403 0.1555,-2.152 1.454,-4.1142 3.9915,-6.0315 7.6774,-14.0682 10.1133,-22.0506 2.1397,-7.0117 2.3748,-9.139 2.3748,-21.4939 0,-12.3496 -0.2356,-14.4839 -2.371,-21.4808 -8.0386,-26.3402 -26.9225,-46.0783 -52.0585,-54.4132 -43.391,-14.3882 -89.2994,8.6862 -103.4754,52.0086 -2.3119,7.0652 -2.822,10.2191 -3.2018,19.7963 -0.4974,12.5402 0.4691,20.033 3.8765,30.051 9.842,28.9366 36.7207,50.1203 68.1165,53.6843 19.2283,2.1827 40.9255,-3.5064 56.2357,-14.7451 l 4.381,-3.216 3.2566,3.0831 c 6.9989,6.6262 69.7516,63.2205 72.157,65.0757 3.0495,2.3519 8.9185,2.6429 11.8528,0.5876 z"
       id="path4881" />
    <path
       style="fill:#e3e3e3;fill-opacity:1;stroke:none;stroke-width:0.884645"
       d="m 1485.2171,1197.2845 c -13.3653,-3.0315 -23.6641,-8.8184 -34.0368,-19.1256 -6.3439,-6.3037 -8.3026,-8.9648 -11.7207,-15.9236 -5.8828,-11.9767 -7.1929,-17.6565 -7.1309,-30.9137 0.046,-9.9703 0.321,-11.8454 2.7889,-19.0632 3.5555,-10.3983 7.8907,-17.6798 15.0346,-25.2527 13.2807,-14.0783 29.7592,-21.128 49.418,-21.1416 24.3731,-0.017 46.5686,12.7925 58.5097,33.7673 13.1828,23.1559 10.7476,53.2554 -5.9814,73.9305 -8.5248,10.5356 -21.7874,19.2128 -34.9151,22.8435 -7.2144,1.9953 -24.9007,2.4816 -31.9663,0.8791 z"
       id="path4883" />
  </g>
</svg>
