<?xml version="1.0" encoding="UTF-8" standalone="no"?>
<svg
   xmlns:dc="http://purl.org/dc/elements/1.1/"
   xmlns:cc="http://creativecommons.org/ns#"
   xmlns:rdf="http://www.w3.org/1999/02/22-rdf-syntax-ns#"
   xmlns:svg="http://www.w3.org/2000/svg"
   xmlns="http://www.w3.org/2000/svg"
   xmlns:sodipodi="http://sodipodi.sourceforge.net/DTD/sodipodi-0.dtd"
   xmlns:inkscape="http://www.inkscape.org/namespaces/inkscape"
   version="1.1"
   id="svg3594"
   width="1200"
   height="1200"
   viewBox="0 0 1200 1200"
   sodipodi:docname="Shopping2.svg"
   inkscape:version="1.0.2-2 (e86c870879, 2021-01-15)">
  <metadata
     id="metadata3600">
    <rdf:RDF>
      <cc:Work
         rdf:about="">
        <dc:format>image/svg+xml</dc:format>
        <dc:type
           rdf:resource="http://purl.org/dc/dcmitype/StillImage" />
        <dc:title></dc:title>
      </cc:Work>
    </rdf:RDF>
  </metadata>
  <defs
     id="defs3598" />
  <sodipodi:namedview
     pagecolor="#ffffff"
     bordercolor="#666666"
     borderopacity="1"
     objecttolerance="10"
     gridtolerance="10"
     guidetolerance="10"
     inkscape:pageopacity="0"
     inkscape:pageshadow="2"
     inkscape:window-width="1920"
     inkscape:window-height="986"
     id="namedview3596"
     showgrid="false"
     inkscape:zoom="0.50383782"
     inkscape:cx="478.83854"
     inkscape:cy="497.18826"
     inkscape:window-x="-11"
     inkscape:window-y="-11"
     inkscape:window-maximized="1"
     inkscape:current-layer="layer10"
     inkscape:document-rotation="0"
     fit-margin-top="0"
     fit-margin-left="0"
     fit-margin-right="0"
     fit-margin-bottom="0" />
  <g
     inkscape:groupmode="layer"
     id="layer10"
     inkscape:label="Color"
     transform="translate(-630.64356,-323.00866)">
    <path
       style="fill:none;stroke:#000000;stroke-width:13.6838;stroke-linecap:round;stroke-linejoin:round;stroke-miterlimit:4;stroke-dasharray:none;stroke-opacity:1"
       d="m 732.55512,982.41739 c 214.0632,-88.064 728.89888,-58.2577 728.89888,-58.2577 l 257.4178,-185.61183 -441.6747,25.74178 c 0,0 -222.1923,-5.41932 -245.2245,8.12898 -23.0321,13.54831 -268.25648,154.45067 -299.41748,209.99877 z"
       id="path3607" />
    <path
       style="fill:none;stroke:#000000;stroke-width:13.6838;stroke-linecap:round;stroke-linejoin:round;stroke-miterlimit:4;stroke-dasharray:none;stroke-opacity:1"
       d="m 732.55512,982.41739 c 74.5156,78.58021 119.2251,270.96621 119.2251,270.96621 0,0 539.22258,-55.5482 587.99648,-40.645"
       id="path4172" />
    <path
       style="fill:none;stroke:#000000;stroke-width:13.6838;stroke-linecap:round;stroke-linejoin:round;stroke-miterlimit:4;stroke-dasharray:none;stroke-opacity:1"
       d="m 1718.8718,738.54786 -108.3865,361.73984 c 0,0 -43.3546,65.0319 -170.7086,112.4509"
       id="path4174" />
    <path
       style="fill:none;stroke:#000000;stroke-width:13.6838;stroke-linecap:round;stroke-linejoin:round;stroke-miterlimit:4;stroke-dasharray:none;stroke-opacity:1"
       d="m 1461.454,924.15969 -21.6773,288.57891"
       id="path4176" />
    <path
       style="fill:none;stroke:#000000;stroke-width:13.6838;stroke-linecap:round;stroke-linejoin:miter;stroke-miterlimit:4;stroke-dasharray:none;stroke-opacity:1"
       d="M 1277.1971,764.28964 1090.2304,918.74039"
       id="path4178" />
    <path
       style="fill:none;stroke:#000000;stroke-width:13.6838;stroke-linecap:round;stroke-linejoin:miter;stroke-miterlimit:4;stroke-dasharray:none;stroke-opacity:1"
       d="m 973.71492,932.28869 c 54.19318,-44.7094 117.87028,-220.83745 121.93478,-273.67584 4.0645,-52.83842 128.7089,-233.0309 178.8377,-94.83817 50.1287,138.19274 111.6225,191.18598 111.6225,191.18598"
       id="path4180"
       sodipodi:nodetypes="cssc" />
    <path
       style="fill:none;stroke:#000000;stroke-width:13.6838;stroke-linecap:round;stroke-linejoin:miter;stroke-miterlimit:4;stroke-dasharray:none;stroke-opacity:1"
       d="m 1240.2528,918.68619 c 0,0 -150.0224,-192.33181 -144.6031,-264.13785"
       id="path4182"
       sodipodi:nodetypes="cc" />
    <path
       style="fill:none;stroke:#000000;stroke-width:13.6838;stroke-linecap:round;stroke-linejoin:miter;stroke-miterlimit:4;stroke-dasharray:none;stroke-opacity:1"
       d="m 1266.3584,545.22511 c 24.387,83.99951 -73.161,215.00004 -73.161,215.00004"
       id="path4184"
       sodipodi:nodetypes="cc" />
    <path
       style="fill:none;stroke:#000000;stroke-width:13.6838;stroke-linecap:round;stroke-linejoin:miter;stroke-miterlimit:4;stroke-dasharray:none;stroke-opacity:1"
       d="m 964.23112,1131.4488 c 18.5426,66.1417 97.02208,48.9581 108.38648,51.4836 0,0 128.7088,-2.7097 151.741,-81.2899"
       id="path4186"
       sodipodi:nodetypes="ccc" />
    <path
       style="fill:none;stroke:#000000;stroke-width:13.6838;stroke-linecap:round;stroke-linejoin:miter;stroke-miterlimit:4;stroke-dasharray:none;stroke-opacity:1"
       d="m 964.23112,1131.4488 c 102.58518,-32.2137 140.66188,-22.268 165.28938,-21.6773 93.1882,2.2354 94.8381,-8.129 94.8381,-8.129"
       id="path4188"
       sodipodi:nodetypes="csc" />
    <path
       style="fill:none;stroke:#000000;stroke-width:20.5257;stroke-linecap:round;stroke-linejoin:miter;stroke-miterlimit:4;stroke-dasharray:none;stroke-opacity:1"
       d="m 1135.6352,1119.85 31.6969,-0.4171"
       id="path4190" />
    <ellipse
       style="fill:#f2f2f2;fill-opacity:0;stroke:#000000;stroke-width:13.6838;stroke-linecap:round;stroke-linejoin:round;stroke-miterlimit:4;stroke-dasharray:none"
       id="path4192"
       cx="988.41125"
       cy="1033.9346"
       rx="23.355623"
       ry="26.275078" />
    <ellipse
       style="fill:#f2f2f2;fill-opacity:0;stroke:#000000;stroke-width:13.6838;stroke-linecap:round;stroke-linejoin:round;stroke-miterlimit:4;stroke-dasharray:none"
       id="path4194"
       cx="1211.3325"
       cy="1016.418"
       rx="23.98122"
       ry="27.943335" />
    <path
       style="fill:#ff9595;fill-opacity:1;stroke:none;stroke-width:1.35505"
       d="m 1029.4897,1175.1047 c -25.482,-2.9094 -44.60108,-14.6052 -53.66578,-32.829 l -2.7721,-5.573 4.2154,-1.754 c 7.3373,-3.053 45.11488,-12.184 62.45688,-15.0962 23.1081,-3.8805 46.4931,-5.6039 64.1144,-4.7256 19.3538,0.965 21.0032,1.3394 21.0032,4.7677 0,1.5337 1.8665,4.655 4.1476,6.9361 l 4.1474,4.1474 19.1461,-0.6886 c 18.7126,-0.673 19.2168,-0.7709 22.276,-4.3272 1.7214,-2.0013 3.1299,-4.767 3.1299,-6.1461 0,-2.7057 2.0356,-3.1267 23.5352,-4.8691 8.7363,-0.708 10.4653,-0.5345 9.571,0.9605 -20.4368,34.1663 -71.6604,56.2253 -138.1224,59.4813 -27.884,1.3661 -28.7816,1.3601 -43.1828,-0.2842 z"
       id="path4197" />
    <path
       style="fill:#deaa87;stroke:none;stroke-width:1.35505"
       d="m 851.28052,1223.7645 c -8.2007,-30.5535 -26.3666,-85.0507 -38.0543,-114.1628 -18.2117,-45.3619 -39.2689,-85.3047 -58.7992,-111.53541 -4.9492,-6.6471 -8.9985,-12.4009 -8.9985,-12.7867 0,-1.2463 32.6072,-11.5772 54.2019,-17.1726 79.9304,-20.7111 186.1777,-33.3844 331.98658,-39.5996 74.3601,-3.1697 317.3968,-1.1168 321.3695,2.7145 0.4953,0.4777 -3.6086,60.6262 -9.12,133.66321 -5.5114,73.0371 -10.0327,134.0783 -10.0473,135.6472 -0.026,2.8323 -0.3748,2.8582 -49.1471,3.6473 -56.7058,0.9175 -115.8563,4.5207 -227.9867,13.8882 -77.5676,6.4801 -225.67928,20.1495 -278.94568,25.7441 -10.3271,1.0846 -19.1755,1.9721 -19.6629,1.9721 -0.4874,0 -3.5457,-9.9088 -6.7963,-22.0195 z m 236.68968,-34.9378 c 53.2583,-5.668 93.4257,-21.4502 118.8667,-46.7039 12.1984,-12.1086 19.4981,-23.2914 23.6173,-36.1811 3.0013,-9.3915 -2.6746,-13.9461 -11.6406,-9.3407 -9.3104,4.7822 -25.2022,6.0661 -68.9034,5.5667 -87.3048,-0.9977 -88.9312,-0.9161 -124.9667,6.2702 -14.6725,2.926 -35.29668,8.1827 -58.01158,14.7863 -10.1125,2.9396 -11.2188,5.3518 -7.3377,15.9966 10.0438,27.5456 32.7658,44.8148 65.02738,49.4216 12.265,1.7514 47.6559,1.8543 63.3486,0.1843 z m -89.55028,-123.5569 c 6.91838,-3.008 12.12068,-7.7515 15.64808,-14.268 7.7795,-14.3715 5.6777,-29.9513 -5.5543,-41.1693 -9.85458,-9.84251 -20.49048,-11.76851 -32.35078,-5.8582 -23.6205,11.7707 -23.9199,47.4313 -0.502,59.7914 6.681,3.5263 16.6005,4.1819 22.759,1.5041 z m 223.20918,-15.9301 c 1.9058,-0.7247 6.182,-3.8216 9.5024,-6.8822 22.1547,-20.4215 8.4616,-60.85081 -20.6265,-60.90021 -9.705,-0.016 -20.9142,7.7133 -26.2756,18.1197 -8.461,16.42231 -1.4832,40.40231 13.9838,48.05821 6.3557,3.1461 17.3753,3.901 23.4159,1.6045 z"
       id="path4199" />
    <path
       style="fill:#deaa87;stroke:none;stroke-width:1.35505"
       d="m 1447.8022,1196.7515 c 0.4364,-3.2158 5.1484,-64.6898 10.4713,-136.6089 9.2769,-125.34461 9.7983,-130.88101 12.5854,-133.62991 3.3847,-3.3382 230.4477,-166.97437 233.1159,-167.99827 1.0775,-0.41347 -18.5137,67.23057 -49.1722,169.77977 l -50.9635,170.46721 -16.9322,17.0026 c -18.5884,18.6658 -38.1307,33.8846 -62.2153,48.4514 -15.8512,9.587 -48.4781,26.4277 -60.6039,31.281 -3.6199,1.449 -8.9436,3.6396 -11.8303,4.8683 l -5.2484,2.2338 z"
       id="path4201" />
    <path
       style="fill:#ffdd55;fill-opacity:1;stroke:none;stroke-width:1.35505"
       d="m 1413.4668,915.08189 c -11.5517,-0.5174 -54.4371,-1.4233 -95.3009,-2.0132 l -74.2977,-1.0725 -7.7939,-10.2785 c -10.1513,-13.3876 -39.0569,-53.8266 -40.7909,-57.0665 -1.173,-2.1918 4.1611,-7.0708 41.5356,-37.99212 l 42.8811,-35.47734 100.4208,-5.86456 c 55.2316,-3.2255 148.2219,-8.65299 206.6455,-12.06113 58.4237,-3.40811 106.4396,-5.98175 106.7021,-5.7192 0.2626,0.26253 -6.3789,5.39924 -14.759,11.41488 -8.38,6.01564 -60.966,43.92664 -116.8577,84.24667 l -101.6211,73.3091 -12.8803,-0.2424 c -7.0841,-0.1333 -22.3317,-0.6658 -33.8836,-1.1832 z"
       id="path4203" />
    <path
       style="fill:#ffdd55;fill-opacity:1;stroke:none;stroke-width:1.35505"
       d="m 1108.5813,913.98069 c 0,-0.7526 15.7016,-14.3057 34.8924,-30.118 19.1908,-15.8123 35.8963,-29.6077 37.1232,-30.6563 2.0009,-1.7104 3.2785,-0.3989 12.4128,12.7429 5.6001,8.0572 15.3565,21.6618 21.6809,30.2325 l 11.4987,15.583 -27.2993,0.853 c -82.0975,2.5652 -90.3087,2.6891 -90.3087,1.3629 z"
       id="path4205" />
    <path
       style="fill:#ffdd55;fill-opacity:1;stroke:none;stroke-width:1.35505"
       d="m 994.18632,921.73989 c 0.6219,-1.0146 3.7885,-5.3458 7.03668,-9.6248 16.5066,-21.7444 43.3172,-73.0363 60.5098,-115.76321 l 9.3514,-23.23982 15.0222,-0.75743 c 8.2621,-0.41658 21.8305,-1.03516 30.1519,-1.37461 l 15.1299,-0.61718 9.841,16.49909 c 5.4126,9.07452 14.9371,24.33817 21.1654,33.91924 6.2284,9.58112 11.4553,17.87782 11.6154,18.43722 0.16,0.5595 -19.8315,17.6394 -44.4256,37.9555 -24.594,20.3161 -45.0711,37.4995 -45.5045,38.1854 -0.4335,0.6858 -9.8849,1.8318 -21.0032,2.5465 -28.4006,1.8257 -55.6339,3.917 -63.41128,4.8694 -5.3642,0.657 -6.3968,0.4618 -5.4791,-1.0353 z"
       id="path4207" />
    <path
       style="fill:#ffdd55;fill-opacity:1;stroke:none;stroke-width:1.35505"
       d="m 1176.2107,816.64605 c -4.7447,-7.30677 -13.073,-20.60226 -18.5071,-29.54558 l -9.8802,-16.26056 51.3577,-0.35471 c 28.2468,-0.19509 52.6969,0.14064 54.3336,0.74606 2.6306,0.97317 -0.9555,4.35454 -30.9295,29.16301 -18.6478,15.43423 -34.7697,28.39402 -35.8264,28.79952 -1.3046,0.5006 -4.6907,-3.5274 -10.5481,-12.54774 z"
       id="path4209" />
    <path
       style="fill:#ffdd55;fill-opacity:1;stroke:none;stroke-width:1.35505"
       d="m 757.62752,964.36419 c 0,-1.6839 20.3194,-18.8391 39.2928,-33.1827 47.876,-36.1934 117.2511,-81.0842 210.70988,-136.34479 23.6093,-13.95966 30.0432,-17.15693 37.7746,-18.77127 5.1251,-1.07017 9.5106,-1.75359 9.7454,-1.51872 0.9082,0.90821 -16.3582,40.84697 -27.9813,64.72308 -6.712,13.7876 -16.7723,32.6905 -22.3562,42.0065 -11.13418,18.5754 -28.02138,40.417 -33.18908,42.9263 -1.8094,0.8785 -17.1633,3.1906 -34.1198,5.138 -64.9494,7.459 -128.4321,20.1168 -177.5085,35.3931 -1.3042,0.406 -2.3697,0.2397 -2.3678,-0.3695 z"
       id="path4211" />
  </g>
</svg>
